<svg xmlns="http://www.w3.org/2000/svg" width="59.577" height="42.106" viewBox="0 0 59.577 42.106">
  <path id="Path_1045" data-name="Path 1045" d="M8.052,19.174,14.1,25.317l-1.863.064a1.011,1.011,0,0,0-.946,1.012l.186,5.438a1,1,0,0,0,.318.7.986.986,0,0,0,.71.3l19.279-.715L32.9,30.068l1.5-2.742a.746.746,0,0,1,1.007-.312l.007,0a.739.739,0,0,1,.393.642.69.69,0,0,1-.073.384L25.48,47a2.008,2.008,0,0,0,1.309.933c.788.117,1.773-.449,2.877-1.6L46.549,27.306l.483-.54a.76.76,0,0,1,1.173.966.388.388,0,0,0-.039.042l-1.631,1.819L44.68,31.687l15.1-.554c4.356-.159,7.684-2.8,7.566-6.017a5.119,5.119,0,0,0-2.561-4.09,9.4,9.4,0,0,0-5.422-1.378l-17.086.6L29.506,7.776C27.885,6.232,26.349,5.6,24.949,5.92a4.134,4.134,0,0,0-2.666,2.423,1.015,1.015,0,0,0,.086.906l7.315,11.444-7.1.288-8.863-6.7a1.022,1.022,0,0,0-1.223.007L8.164,17.67a1.01,1.01,0,0,0-.19,1.416l.005.007Z" transform="translate(-7.767 -5.839)" fill="#0a99ab"/>
</svg>
