<svg xmlns="http://www.w3.org/2000/svg" width="23.569" height="23.847" viewBox="0 0 23.569 23.847">
  <path id="Объединение_13" data-name="Объединение 13" d="M20.737,23.358l-8.953-9.012L2.832,23.358a1.65,1.65,0,0,1-2.346,0A1.678,1.678,0,0,1,.486,21L9.5,11.923.486,2.851a1.678,1.678,0,0,1,0-2.362,1.651,1.651,0,0,1,2.346,0L11.784,9.5,20.737.489a1.651,1.651,0,0,1,2.346,0,1.678,1.678,0,0,1,0,2.362l-9.013,9.073L23.083,21a1.678,1.678,0,0,1,0,2.361,1.65,1.65,0,0,1-2.346,0Z" transform="translate(0)" fill="#0a99ab"/>
</svg>
