<svg xmlns="http://www.w3.org/2000/svg" width="1440.059" height="192.247" viewBox="0 0 1440.059 192.247">
  <path id="Объединение_11" data-name="Объединение 11" d="M1621.439,5145.246H467.17V5035.911l-.17,0v-2.434l.17,0v-1.244h.116l6.941-.007h7.748v1.5q1.443,0,2.884-.024a68.5,68.5,0,0,0,8.8-.7c.725-.119,1.458-.194,2.18-.349l2.164-.426c.719-.138,1.43-.345,2.142-.512s1.436-.338,2.135-.562l2.117-.627.53-.158.525-.182,1.042-.357,2.087-.722,2.061-.793c.682-.268,1.379-.522,2.055-.812l2.031-.873c.67-.3,1.357-.576,2.022-.884l2-.937.808-.377v-5.179h10.222l4.712-2.5c1.293-.706,2.618-1.354,3.935-2.022l1.97-1.006,1.992-.958c1.332-.642,2.654-1.293,4-1.89s2.679-1.242,4.046-1.8q4.06-1.748,8.223-3.285c2.772-1.013,5.572-1.952,8.406-2.774,1.423-.4,2.84-.829,4.273-1.163l2.159-.527c.718-.172,1.442-.3,2.166-.465.722-.146,1.443-.3,2.171-.447l2.183-.369c1.455-.269,2.923-.432,4.392-.634.365-.049.731-.1,1.1-.135l1.1-.1,2.209-.208c1.472-.107,2.956-.17,4.434-.247,1.471-.024,2.938-.066,4.422-.071l4.42,0h.3v.028l3.648.138c1.314.1,2.629.169,3.939.292,1.305.146,2.618.253,3.92.438l1.951.28c.648.089,1.3.18,1.948.312,2.592.45,5.166.982,7.718,1.622s5.081,1.361,7.588,2.158l1.869.615c.627.207,1.252.4,1.868.638,1.231.454,2.473.887,3.7,1.356l3.66,1.451,3.626,1.551c2.393,1.077,4.786,2.16,7.14,3.331l1.771.857,1.753.888c1.166.6,2.344,1.188,3.5,1.8l6.943,3.7c2.3,1.256,4.658,2.406,7,3.589,2.37,1.116,4.729,2.257,7.146,3.269.6.261,1.2.533,1.809.772l1.83.722,1.834.715,1.849.647c.62.215,1.239.438,1.857.639l1.885.565c1.249.4,2.527.688,3.8,1.017.633.169,1.279.283,1.921.412s1.283.269,1.925.382c1.3.185,2.59.423,3.894.541,1,.119,1.988.2,2.986.266v-.164l.181,0,8.844.145c1.989.053,3.99.078,5.984.082l5.167-.082c2.167-.11,4.328-.313,6.473-.628.728-.119,1.46-.194,2.185-.349l2.162-.426c.722-.138,1.43-.345,2.141-.512s1.437-.338,2.139-.562l2.109-.627.535-.158.522-.182,1.048-.357,2.085-.722,2.059-.793c.687-.268,1.379-.522,2.054-.812l2.03-.873c.678-.3,1.361-.576,2.023-.884l2-.937,2.009-.934c.6-.289,1.194-.589,1.792-.888v-3.734h7.231l4.71-2.5c1.293-.706,2.622-1.354,3.938-2.022l1.97-1.006,1.989-.958c1.334-.642,2.66-1.293,4.007-1.89s2.673-1.242,4.043-1.8q4.059-1.748,8.223-3.285c2.768-1.013,5.571-1.952,8.4-2.774,1.427-.4,2.841-.829,4.281-1.163l2.147-.527c.723-.172,1.444-.3,2.174-.465.72-.146,1.439-.3,2.169-.447l2.186-.369c1.448-.269,2.916-.432,4.381-.634.371-.049.739-.1,1.1-.135l1.105-.1,2.21-.208c1.474-.107,2.948-.17,4.435-.247,1.475-.024,2.941-.066,4.42-.071l4.42,0h.3v.028l3.651.138c1.31.1,2.624.169,3.934.292,1.307.146,2.616.253,3.921.438l1.951.28c.651.089,1.305.18,1.95.312,2.586.45,5.163.982,7.716,1.622s5.086,1.361,7.584,2.158l1.873.615c.626.207,1.252.4,1.868.638,1.233.454,2.476.887,3.7,1.356l3.666,1.451,3.62,1.551c2.4,1.077,4.789,2.16,7.143,3.331l1.77.857,1.758.888c1.166.6,2.342,1.188,3.5,1.8l6.944,3.7.442.24V5004.2h2.164v-17.937h-.43v-1.712h5.943v-9.566h2l.511-21.987.632,21.987h2.142v9.566h6.167v1.712H929.7V5004.2h1.818v25.42l.558.194c.62.215,1.235.438,1.856.639l1.884.565c.721.23,1.45.423,2.181.608v-2.978h9.309v3.581l5.087,0,.039-.008c.718-.138,1.429-.345,2.141-.512s1.437-.338,2.136-.562l2.116-.627.531-.158.525-.182,1.042-.357,2.087-.722,2.06-.793c.683-.268,1.38-.522,2.056-.812l2.031-.873c.67-.3,1.357-.576,2.021-.884l2-.937,2-.934c.663-.319,1.322-.652,1.98-.981l1.98-.985.988-.495.979-.517,7.814-4.14c1.293-.706,2.618-1.354,3.933-2.022l1.971-1.006,1.991-.958c1.332-.642,2.655-1.293,4-1.89s2.679-1.242,4.045-1.8q4.06-1.748,8.224-3.285c2.771-1.013,5.571-1.952,8.4-2.774,1.424-.4,2.841-.829,4.274-1.163l2.158-.527c.718-.172,1.442-.3,2.167-.465.722-.146,1.443-.3,2.17-.447l2.184-.369c1.454-.269,2.923-.432,4.391-.634.366-.049.732-.1,1.1-.135l1.105-.1,2.209-.208c1.472-.107,2.955-.17,4.434-.247,1.471-.024,2.938-.066,4.422-.071l4.42,0h.3v.028l3.648.138c1.313.1,2.629.169,3.938.292,1.306.146,2.618.253,3.921.438l1.952.28c.648.089,1.3.18,1.947.312,2.594.45,5.167.982,7.719,1.622s5.081,1.361,7.588,2.158l1.868.615c.627.207,1.252.4,1.869.638,1.23.454,2.472.887,3.7,1.356l3.66,1.451,3.626,1.551c2.393,1.077,4.785,2.16,7.14,3.331l1.77.857,1.755.888c1.166.6,2.344,1.188,3.5,1.8l6.943,3.7c2.3,1.256,4.657,2.406,7,3.589,2.37,1.116,4.729,2.257,7.146,3.269.6.261,1.2.533,1.81.772l1.829.722,1.834.715,1.85.647c.618.215,1.238.438,1.855.639l1.886.565c1.249.4,2.527.688,3.8,1.017.633.169,1.278.283,1.92.412s1.284.269,1.926.382c1.3.185,2.589.423,3.894.541,1,.119,1.988.2,2.986.266v-.164l.181,0,8.844.145c1.989.053,3.989.078,5.983.082l5.167-.082c2.168-.11,4.327-.313,6.473-.628.728-.119,1.461-.194,2.186-.349l2.161-.426c.722-.138,1.43-.345,2.141-.512s1.437-.338,2.139-.562l2.11-.627.534-.158.521-.182,1.049-.357,2.085-.722,2.059-.793c.687-.268,1.379-.522,2.053-.812l2.029-.873c.678-.3,1.362-.576,2.024-.884l2-.937,2.01-.934c.66-.319,1.318-.652,1.979-.981l1.98-.985.981-.495.982-.517,7.811-4.14c1.294-.706,2.622-1.354,3.938-2.022l1.971-1.006,1.989-.958c1.334-.642,2.66-1.293,4.007-1.89s2.672-1.242,4.043-1.8q4.059-1.748,8.223-3.285c2.768-1.013,5.571-1.952,8.4-2.774,1.427-.4,2.841-.829,4.281-1.163l2.147-.527c.722-.172,1.443-.3,2.174-.465.719-.146,1.439-.3,2.168-.447l2.187-.369c1.448-.269,2.915-.432,4.38-.634.372-.049.738-.1,1.1-.135l1.105-.1,2.21-.208c1.473-.107,2.948-.17,4.435-.247,1.474-.024,2.94-.066,4.42-.071l4.419,0h.3v.028l3.651.138c1.309.1,2.625.169,3.933.292,1.309.146,2.616.253,3.922.438l1.95.28c.652.089,1.306.18,1.951.312,2.586.45,5.164.982,7.716,1.622s5.085,1.361,7.584,2.158l1.873.615c.625.207,1.252.4,1.868.638,1.233.454,2.476.887,3.7,1.356l3.667,1.451,3.619,1.551c2.4,1.077,4.79,2.16,7.145,3.331l1.77.857,1.757.888c1.167.6,2.343,1.188,3.506,1.8l6.943,3.7c2.3,1.256,4.649,2.406,6.991,3.589,2.373,1.116,4.73,2.257,7.153,3.269.6.261,1.2.533,1.8.772l1.836.722,1.827.715,1.855.647c.62.215,1.236.438,1.857.639l1.884.565q.241.078.484.149V5004.2h2.164v-17.937h-.43v-1.712h5.943v-9.566h2l.511-21.987.632,21.987h2.142v9.566h6.167v1.712h-.485V5004.2h1.818v29.629c2.1,0,4.2-.052,6.3-.09l.175,0v-5.087h9.309v3.581h.041l6.941-.007h7.747v1.526h11.215v2.2c.17-.029.339-.061.507-.1l2.064-.407c.685-.132,1.363-.329,2.042-.489s1.37-.324,2.036-.538l2.018-.6.505-.152.5-.173.993-.342,1.99-.691,1.965-.76c.65-.257,1.315-.5,1.959-.776l1.937-.835c.639-.285,1.294-.552,1.927-.846l1.909-.9,1.908-.895c.634-.3,1.26-.622,1.888-.938l.217-.108v-7.168h13.7q.523-.264,1.045-.529l1.878-.963,1.9-.918c1.27-.613,2.53-1.236,3.815-1.807s2.555-1.188,3.857-1.72q3.872-1.675,7.842-3.144c2.642-.969,5.313-1.868,8.015-2.656,1.356-.379,2.708-.792,4.074-1.111l2.058-.5c.685-.165,1.375-.289,2.066-.446.688-.14,1.376-.291,2.07-.427l2.082-.353c1.387-.258,2.787-.414,4.187-.606.349-.047.7-.1,1.046-.129l1.053-.1,2.106-.2c1.4-.1,2.818-.163,4.227-.236,1.4-.023,2.8-.063,4.217-.067l4.215,0h.288v.027l3.478.132c1.251.091,2.507.162,3.755.279,1.245.141,2.5.243,3.739.419l1.861.269c.617.085,1.242.172,1.857.3,2.472.431,4.927.939,7.359,1.552s4.845,1.3,7.236,2.065l1.781.588c.6.2,1.194.387,1.781.609,1.173.435,2.357.85,3.528,1.3l3.49,1.388,3.458,1.485c2.281,1.03,4.562,2.066,6.808,3.186l1.688.82,1.673.851c1.11.578,2.235,1.136,3.342,1.726l6.621,3.542c2.192,1.2,4.441,2.3,6.671,3.433,2.26,1.067,4.509,2.16,6.815,3.127.573.25,1.146.511,1.724.74l1.745.69,1.748.685,1.764.618c.59.206,1.181.42,1.77.612l1.8.54c1.191.383,2.41.658,3.621.973.6.162,1.219.271,1.831.394s1.224.257,1.836.366c1.239.177,2.469.4,3.712.516.95.114,1.9.193,2.848.255v-.156l.172,0,8.433.138c1.9.05,3.8.076,5.705.078l4.927-.078c2.067-.106,4.126-.3,6.172-.6.694-.113,1.393-.186,2.084-.333l2.061-.407c.688-.132,1.364-.329,2.042-.489s1.37-.324,2.039-.538l2.011-.6.509-.152.5-.173,1-.342,1.987-.691,1.964-.76c.655-.257,1.315-.5,1.958-.776l1.935-.835c.646-.285,1.3-.552,1.93-.846l1.906-.9,1.916-.895c.63-.3,1.256-.622,1.887-.938l1.888-.944.936-.473.936-.494,7.448-3.96c1.233-.675,2.5-1.294,3.754-1.935l1.879-.963,1.9-.918c1.272-.613,2.536-1.236,3.821-1.807s2.548-1.188,3.854-1.72q3.87-1.675,7.842-3.144c2.639-.969,5.311-1.868,8.014-2.656,1.361-.379,2.709-.792,4.082-1.111l2.047-.5c.688-.165,1.377-.289,2.073-.446.686-.14,1.372-.291,2.068-.427l2.084-.353c1.381-.258,2.78-.414,4.177-.606.354-.047.7-.1,1.051-.129l1.054-.1,2.106-.2c1.405-.1,2.811-.163,4.229-.236,1.406-.023,2.8-.063,4.215-.067l4.214,0h.289v.027l3.482.132c1.248.091,2.5.162,3.751.279,1.246.141,2.493.243,3.739.419l1.861.269c.622.085,1.245.172,1.861.3,2.466.431,4.923.939,7.357,1.552s4.849,1.3,7.231,2.065l1.786.588c.6.2,1.194.387,1.781.609,1.176.435,2.361.85,3.524,1.3l3.5,1.388,3.451,1.485c2.287,1.03,4.566,2.066,6.812,3.186l1.687.82,1.676.851c1.111.578,2.233,1.136,3.343,1.726l6.62,3.542c2.194,1.2,4.433,2.3,6.666,3.433,2.264,1.067,4.511,2.16,6.821,3.127.572.25,1.141.511,1.718.74l1.751.69,1.741.685,1.77.618c.469.164.937.332,1.406.491V5004.2h2.164v-17.937h-.43v-1.712h5.943v-9.566h2L1881,4953l.632,21.987h2.143v9.566h6.167v1.712h-.485V5004.2h1.818v32.779l.183,0c2.1.028,4.194-.012,6.3-.054v-8.28h9.309v116.594H1621.439Zm30.725-21.609h1.262v-1.392h-1.262Zm-63.249,0h1.259v-1.392h-1.259Zm-416.814,0h1.26v-1.392h-1.26Zm-63.25,0h1.259v-1.392h-1.259Zm-416.435,0h1.26v-1.392h-1.26Zm-63.25,0h1.258v-1.392h-1.258Zm992.272-.162h.623v-1.167h-.623Zm-.427,0h.315v-1.167h-.315Zm-.734,0h.728v-1.167h-.728Zm-478.9,0H1142v-1.167h-.623Zm-.426,0h.314v-1.167h-.314Zm-.735,0h.729v-1.167h-.729Zm-478.524,0h.623v-1.167h-.623Zm-.426,0h.314v-1.167h-.314Zm-.734,0h.728v-1.167h-.728Zm962.321-.05h.814v-.895h-.814Zm-4.181,0h.807v-.895h-.807Zm-475.883,0h.815v-.895h-.815Zm-4.181,0h.808v-.895h-.808Zm-475.5,0h.814v-.895H663.1Zm-4.182,0h.808v-.895h-.808Zm965.226-.055h.807v-.9h-.807Zm-6.764,0h.809v-.9h-.809Zm-473.3,0h.806v-.9h-.806Zm-6.765,0h.81v-.9h-.81Zm-472.919,0h.806v-.9H664.4Zm-6.765,0h.81v-.9h-.81Zm972.759-2.286h.977V5120h-.977Zm-19.425,0h.969V5120h-.969Zm-460.639,0h.977V5120h-.977Zm-19.424,0h.969V5120h-.969Zm-460.26,0h.976V5120h-.976Zm-19.425,0h.969V5120h-.969Zm980.726-.073h.969v-1.078h-.969Zm-22.53,0h.969v-1.078h-.969Zm-457.534,0h.969v-1.078h-.969Zm-22.53,0h.969v-1.078h-.969Zm-457.155,0h.969v-1.078H672.2Zm-22.529,0h.97v-1.078h-.97Zm1008.173-.045h1.1v-1.75h-1.1Zm-74.447,0h1.1v-1.75h-1.1Zm-405.617,0h1.1v-1.75h-1.1Zm-74.447,0h1.1v-1.75h-1.1Zm-405.237,0h1.1v-1.75h-1.1Zm-74.447,0h1.1v-1.75h-1.1Zm1032.737-.475h.889v-1.224h-.889Zm-71.324,0h.887v-1.224h-.887Zm-408.74,0h.889v-1.224h-.889Zm-71.324,0h.887v-1.224H1105Zm-408.36,0h.889v-1.224h-.889Zm-71.324,0h.887v-1.224h-.887Zm1024.5-.276h1.26v-1.4h-1.26Zm-58.56,0h1.261v-1.4h-1.261Zm-421.5,0h1.26v-1.4h-1.26Zm-58.56,0h1.261v-1.4H1111.2Zm-421.124,0h1.26v-1.4h-1.26Zm-58.56,0h1.263v-1.4h-1.263Zm1010.128-.3h.785v-1.08h-.785Zm-41.727,0h.785v-1.08h-.785Zm-438.337,0h.785v-1.08h-.785Zm-41.727,0h.786v-1.08h-.786Zm-437.958,0h.786v-1.08h-.786Zm-41.726,0h.785v-1.08h-.785Zm1002.723-.068h.785v-1.083h-.785Zm-44.221,0h.782v-1.083h-.782Zm-435.843,0h.785v-1.083h-.785Zm-44.221,0h.782v-1.083h-.782Zm-435.463,0h.785v-1.083h-.785Zm-44.221,0h.782v-1.083h-.782Zm1032.041-1.382h.967v-1.432h-.967Zm-100.542,0h.956v-1.432h-.956Zm-379.521,0h.967v-1.432h-.967Zm-100.543,0h.956v-1.432h-.956Zm-379.141,0h.966v-1.432h-.966Zm-100.544,0h.956v-1.432h-.956Zm1063.609-2.88h1.081v-1.487h-1.081Zm-107.3,0h1.08v-1.487h-1.08Zm-372.765,0h1.081v-1.487h-1.081Zm-107.3,0H1088v-1.487h-1.08Zm-372.384,0h1.08v-1.487h-1.08Zm-107.3,0h1.081v-1.487h-1.081Zm1044.93-.038h.785v-1.078h-.785Zm-62.763,0h.779v-1.078h-.779Zm-417.3,0h.785v-1.078h-.785Zm-62.763,0h.779v-1.078h-.779Zm-416.922,0h.785v-1.078h-.785Zm-62.763,0h.779v-1.078h-.779Zm1023.76-.064h.782V5114.4h-.782Zm-65.264,0h.785V5114.4h-.785Zm-414.8,0h.782V5114.4h-.782Zm-65.264,0h.785V5114.4h-.785Zm-414.42,0h.782V5114.4h-.782Zm-65.264,0h.785V5114.4H628.4Zm993.251-.833h.972v-1.079h-.972Zm-1.928,0h.971v-1.079h-.971Zm-478.136,0h.973v-1.079h-.973Zm-1.928,0h.972v-1.079h-.972Zm-477.756,0h.973v-1.079H661.9Zm-1.927,0h.971v-1.079h-.971Zm963.229-.066h.971V5113.5h-.971Zm-5.032,0h.972V5113.5h-.972Zm-475.032,0h.971V5113.5h-.971Zm-5.032,0h.972V5113.5h-.972Zm-474.653,0h.971V5113.5h-.971Zm-5.032,0h.972V5113.5h-.972Zm998.782-.506h.976V5113h-.976Zm-73.038,0h.968V5113h-.968Zm-407.026,0h.976V5113h-.976Zm-73.037,0h.967V5113h-.967Zm-406.648,0h.976V5113h-.976Zm-73.036,0h.967V5113h-.967Zm1025.66-3.532h.976v-1.081h-.976Zm-58.794,0h.97v-1.081h-.97Zm-421.27,0h.976v-1.081h-.976Zm-58.794,0h.97v-1.081h-.97Zm-420.891,0h.976v-1.081h-.976Zm-58.793,0h.969v-1.081h-.969Zm1024.559-1.349h1.262v-1.4H1656.1Zm-71.114,0h1.255v-1.4h-1.255Zm-408.95,0h1.263v-1.4h-1.263Zm-71.114,0h1.255v-1.4h-1.255Zm-408.571,0h1.263v-1.4H696.35Zm-71.113,0h1.254v-1.4h-1.254Zm1024.951-.955h.978v-1.081h-.978Zm-59.014,0h.976v-1.081h-.976Zm-421.05,0h.978v-1.081h-.978Zm-59.014,0h.976v-1.081h-.976Zm-420.669,0h.978v-1.081h-.978Zm-59.015,0h.976v-1.081h-.976Zm1009.336-.119h1.055v-1.175h-1.055Zm-40.239,0h1.051v-1.175h-1.051Zm-439.825,0h1.055v-1.175H1160.7Zm-40.239,0h1.051v-1.175h-1.051Zm-439.446,0h1.056v-1.175H681.3v.046h-.286Zm-40.238,0h1.052v-1.175h-1.052Zm1001.672-.077h1.057v-1.171h-1.057Zm-43.611,0h1.055v-1.171h-1.055Zm-436.453,0h1.057v-1.171h-1.057Zm-43.611,0h1.055v-1.171h-1.055Zm-436.074,0h1.057v-1.171H682.7Zm-43.61,0h1.054v-1.171h-1.054Zm979.931-1.113h.973v-1.076h-.973Zm-476.74,0h.976v-1.076h-.976Zm-3.324,0h.974v-1.076h-.974Zm-476.359,0h.975v-1.076H662.6Zm-3.325,0h.974v-1.076h-.974Zm990.664-.888h1.126v-1.25h-1.126Zm-58.654,0h1.122v-1.25h-1.122Zm-421.41,0H1171v-1.25h-1.126Zm-58.654,0h1.122v-1.25h-1.122Zm-421.03,0h1.125v-1.25h-1.125Zm-58.655,0h1.122v-1.25h-1.122Zm1022.582-.076h.969V5104.9h-.969Zm-66.863,0h.973V5104.9h-.973Zm-413.2,0h.969V5104.9h-.969Zm-66.863,0h.973V5104.9h-.973Zm-412.822,0h.969V5104.9h-.969Zm-66.863,0h.973V5104.9h-.973Zm1014.662-.3h1.224v-1.35h-1.224Zm-43.217,0h1.221v-1.35h-1.221Zm-436.847,0h1.224v-1.35H1162.1Zm-43.217,0h1.221v-1.35h-1.221Zm-436.468,0h1.224v-1.35h-1.224Zm-43.216,0h1.22v-1.35H639.2Zm1001.018-.168h.993v-1.108h-.993Zm-39.093,0h.991v-1.108h-.991Zm-440.97,0h.992v-1.108h-.992Zm-39.094,0h.991v-1.108h-.991Zm-439.6,0v-1.108H681.3v1.108Zm-40.086,0h.992v-1.108h-.992Zm1017.226-.762h1.3v-1.405h-1.3Zm-76.179,0h1.306v-1.405h-1.306Zm-403.884,0h1.3v-1.405h-1.3Zm-76.18,0h1.307v-1.405h-1.307Zm-403.5,0h1.3v-1.405h-1.3Zm-76.18,0h1.306v-1.405h-1.306Zm1029.651-.941h.972v-1.08h-.972Zm-63.291,0h.969v-1.08h-.969Zm-416.773,0h.972v-1.08h-.972Zm-63.291,0h.97v-1.08h-.97Zm-416.393,0h.972v-1.08h-.972Zm-63.292,0h.97v-1.08h-.97Zm987.293-.183h.976v-1.071h-.976Zm-471.866,0h.97v-1.071h-.97Zm-8.2,0h.976v-1.071h-.976Zm-471.487,0H666v-1.071h-.97Zm-8.2,0h.976v-1.071h-.976Zm999.71-.96h.977v-1.082h-.977Zm-71.727,0h.973v-1.082h-.973Zm-408.337,0h.977v-1.082h-.977Zm-71.727,0h.973v-1.082h-.973Zm-407.957,0h.977v-1.082H696.8Zm-71.726,0h.972v-1.082h-.972Zm1025.2-.937h.967v-1.077h-.967Zm-59.168,0h.969v-1.077h-.969Zm-420.9,0h.967v-1.077h-.967Zm-59.168,0h.969v-1.077h-.969Zm-420.516,0h.967v-1.077h-.967Zm-59.168,0h.969v-1.077h-.969Zm1032.625-.276h1.083v-1.483h-1.083Zm-86.7,0h1.079v-1.483h-1.079Zm-393.364,0H1185v-1.483h-1.084Zm-86.7,0h1.079v-1.483h-1.079Zm-392.985,0h1.084v-1.483h-1.084Zm-86.7,0h1.08v-1.483h-1.08Zm1048.17-.087h1.081v-1.486H1665.7Zm-90.138,0h1.074v-1.486h-1.074Zm-389.925,0h1.08v-1.486h-1.08Zm-90.139,0h1.074v-1.486H1095.5Zm-389.545,0h1.08v-1.486h-1.08Zm-90.139,0h1.074v-1.486h-1.074Zm1042.769-.21h.976v-1.081h-.976Zm-75.8,0h.969v-1.081h-.969Zm-404.263,0h.976v-1.081h-.976Zm-75.8,0h.969v-1.081h-.969Zm-403.884,0h.977v-1.081h-.977Zm-75.8,0H624v-1.081h-.969Zm1007.841-.712v-1.076h-.592v1.076Zm-19.414,0h.971v-1.076h-.971Zm-461.62,0h.972v-1.076h-.972Zm-479.684,0h.972v-1.076h-.972Zm-18.444,0h.972v-1.076h-.972Zm964.476-.061h1.262v-1.4h-1.262Zm-471.363,0h1.261v-1.4h-1.261Zm-8.7,0h1.262v-1.4h-1.262Zm-470.983,0H666.4v-1.4h-1.261Zm-8.7,0H657.7v-1.4h-1.263Zm975.017,0h.967v-1.077h-.967Zm-21.543,0h.969v-1.077h-.969Zm-458.52,0h.966v-1.077h-.966Zm-479.684,0h.934v-1.077h-.934Zm-21.544,0h.968v-1.077h-.968Zm1006.49-.966h1.26V5098h-1.26Zm-72.235,0h1.261V5098h-1.261Zm-407.829,0h1.26V5098h-1.26Zm-72.235,0h1.262V5098h-1.262Zm-407.448,0h1.258V5098H696.91Zm-72.236,0h1.261V5098h-1.261Zm1029.928-.175h1.257v-1.394H1654.6Zm-68.12,0h1.258v-1.394h-1.258Zm-411.944,0h1.258v-1.394h-1.258Zm-68.12,0h1.258v-1.394h-1.258Zm-411.564,0h1.258v-1.394h-1.258Zm-68.12,0h1.258v-1.394h-1.258Zm992.6-1.911h.972v-1.079h-.972Zm-477.364,0h.973v-1.079h-.973Zm-2.7,0h.972v-1.079h-.972Zm-476.984,0h.973v-1.079h-.973Zm-2.7,0h.973v-1.079h-.973Zm958.2-.067h.975v-1.08h-.975Zm-474.269,0h.976v-1.08h-.976Zm-5.8,0h.975v-1.08h-.975Zm-473.889,0h.976v-1.08h-.976Zm-5.8,0h.975v-1.08h-.975Zm1000.648-1.015h.975v-1.075h-.975Zm-76,0h.976v-1.075h-.976Zm-404.059,0h.975v-1.075h-.975Zm-76,0h.976v-1.075h-.976Zm-403.68,0h.976v-1.075h-.976Zm-76,0h.976v-1.075h-.976Zm1032.015-.62h1.126v-1.243h-1.126Zm-68.683,0h1.128v-1.243h-1.128Zm-411.381,0h1.126v-1.243h-1.126Zm-68.682,0h1.128v-1.243H1106.2Zm-411,0h1.125v-1.243H695.2Zm-68.683,0h1.128v-1.243h-1.128Zm941.127-.125h3V5065.29h-.191v-1.218h16.485v1.218h-.326v13.06h6.26v1.24h9.051v6.691h13.262v4.938h6.842V5054.6h-1.243v-.037h-.017v-4.046h-53.126Zm-497.179-47.326h17.115v47.326h3V5065.29h-.191v-1.218h16.486v1.218h-.327v13.06h6.26v1.24h9.051v6.691h5.219v-34.042h-1.3v-.04h-.018v-4.229h-55.295Zm-462.569,0v47.326h3V5065.29h-.191v-1.218h16.486v1.218h-.327v13.06h6.261v1.24h9.05v6.691h13.263v4.938h11.967v-4.939h5.237v-34.042h-1.3v-.04h-.018v-4.229H605.346v.187Zm1063.8,47.325h3.009v-44.96H1645.34l-.131.1-.093-.1h-14.009v4.083h-.823v31.675h10.125v-6.69h9.057v-1.24h6.256v-13.06h-.328v-1.218h16.489v1.218h-.193Zm-480.064,0h3.009v-47.325h1.335l-.248-.187h-44.2l-.137.107-.1-.107H1136.6v4.269h-.864v38.98h11.355v-4.939h13.254v-6.69h9.057v-1.24h6.257v-13.06h-.328v-1.218h16.49v1.218h-.193Zm-479.684,0h3.009v-47.325h17.112v-.187H697.09l-.136.107-.1-.107H682.164v4.269H681.3v27.352h8.419v-1.24h6.256v-13.06h-.328v-1.218h16.489v1.218h-.193Zm940.5-.035h1.319v-1.463h-1.319Zm-63.874,0h1.319v-1.463h-1.319Zm-416.189,0h1.319v-1.463h-1.319Zm-63.874,0h1.319v-1.463h-1.319Zm-415.81,0h1.319v-1.463H692.7Zm-63.874,0h1.319v-1.463h-1.319Zm1001.919-.149v-1.081h-.459v1.081Zm-19.149,0h.973v-1.081h-.973Zm-461.883,0h.969v-1.081h-.969Zm-479.684,0H671v-1.081h-.969Zm-18.18,0h.972v-1.081h-.972Zm1004.833-1.472h.973v-1.077h-.973Zm-71.994,0h.976v-1.077h-.976Zm-408.07,0h.973v-1.077h-.973Zm-71.993,0h.975v-1.077h-.975Zm-407.691,0h.974v-1.077h-.974Zm-71.993,0h.976v-1.077h-.976Zm1033.576-.119h.979v-1.079h-.979Zm-75.662,0h.972v-1.079h-.972Zm-404.4,0h.979v-1.079h-.979Zm-75.662,0h.973v-1.079h-.973Zm-404.023,0h.979v-1.079h-.979Zm-75.662,0h.973v-1.079H623.1Zm1020.083-.086h1.125v-1.244h-1.125Zm-45.158,0h1.125v-1.244h-1.125Zm-434.906,0h1.125v-1.244h-1.125Zm-45.158,0h1.125v-1.244h-1.125Zm-434.526,0h1.126v-1.244h-1.126Zm-45.158,0h1.125v-1.244h-1.125Zm1003.111-.147h.916v-1.018h-.916Zm-41.36,0h.911v-1.018h-.911Zm-438.7,0h.916v-1.018h-.916Zm-41.36,0h.911v-1.018h-.911Zm-438.323,0h.914v-1.018h-.914Zm-41.361,0h.911v-1.018h-.911Zm1009.914-.408h1.112v-1.517H1650.2Zm-59.172,0h1.122v-1.517h-1.122Zm-420.892,0h1.112v-1.517h-1.112Zm-59.172,0h1.122v-1.517h-1.122Zm-420.512,0h1.112v-1.517H690.45Zm-59.172,0H632.4v-1.517h-1.123Zm999.2-.067v-1.242h-.192V5093Zm-18.611,0h1.122v-1.242h-1.122Zm-462.577,0h1.126v-1.242h-1.126ZM669.6,5093h1.125v-1.242H669.6Zm-17.486,0h1.122v-1.242h-1.122Zm1000.829-.189h.858v-1.081h-.858Zm-64.412,0h.861v-1.081h-.861Zm-415.652,0h.858v-1.081h-.858Zm-64.412,0h.861v-1.081h-.861Zm-415.272,0h.858v-1.081H693.2Zm-64.412,0h.861v-1.081h-.861Zm1002.323-.044h.914v-1.009h-.914Zm-20.794,0h.917v-1.009h-.917Zm-459.269,0h.914v-1.009h-.914Zm-479.684,0h.914v-1.009h-.914Zm-20.8,0h.919v-1.009h-.919Zm1041.519-.02h1.2v-1.334h-1.2Zm-480.064,0h1.2v-1.334h-1.2Zm-143.034,0h1.207v-1.334h-1.207Zm-336.65,0h1.205v-1.334h-1.205Zm-143.035,0h1.207v-1.334H589.3Zm1065.715-1.082h1.26v-1.4h-1.26Zm-68.956,0h1.257v-1.4h-1.257Zm-411.108,0h1.26v-1.4h-1.26Zm-68.956,0h1.258v-1.4H1106Zm-410.728,0h1.261v-1.4H695.27Zm-68.956,0h1.258v-1.4h-1.258Zm1030.922-.053h.973v-1.082h-.973Zm-73.1,0h.973v-1.082h-.973Zm-406.961,0h.973v-1.082h-.973Zm-73.1,0h.973v-1.082h-.973Zm-406.581,0h.974v-1.082h-.974Zm-73.1,0h.972v-1.082h-.972Zm1034.4-.069h.969v-1.083h-.969Zm-76.2,0h.976v-1.083h-.976Zm-403.859,0h.969v-1.083h-.969Zm-76.2,0h.976v-1.083h-.976Zm-403.479,0h.969v-1.083h-.969Zm-76.206,0h.976v-1.083h-.976Zm1243.037-.021h1.2v-1.334h-1.2Zm-480.064,0h1.2v-1.334h-1.2Zm-479.684,0h1.2v-1.334h-1.2Zm746.655-.773h.969v-1.079h-.969Zm-64.187,0h.972v-1.079h-.972Zm-415.877,0h.969v-1.079h-.969Zm-64.187,0h.973v-1.079h-.973Zm-415.5,0H694v-1.079h-.97Zm-64.187,0h.973v-1.079h-.973Zm1026.387-1.541h.973v-1.078h-.973Zm-69.095,0h.975v-1.078h-.975Zm-410.968,0h.972v-1.078h-.972Zm-69.1,0h.976v-1.078h-.976Zm-410.588,0h.972v-1.078h-.972Zm-69.1,0h.976v-1.078h-.976Zm1030.674-.112h.982v-1.083h-.982Zm-72.763,0h.976v-1.083h-.976Zm-407.3,0h.982v-1.083H1177Zm-72.763,0h.976v-1.083h-.976Zm-406.921,0h.982v-1.083h-.982Zm-72.763,0h.976v-1.083h-.976Zm1034.065-.065h.97v-1.086h-.97Zm-5.538,0h.971v-1.086h-.971Zm-64.785,0h.976v-1.086h-.976Zm-5.541,0h.976v-1.086h-.976Zm-404.2,0h.97v-1.086h-.97Zm-5.538,0h.972v-1.086h-.972Zm-64.785,0h.976v-1.086h-.976Zm-5.541,0h.976v-1.086h-.976Zm-403.82,0h.969v-1.086h-.969Zm-5.539,0h.972v-1.086h-.972Zm-64.785,0h.976v-1.086h-.976Zm-5.541,0h.976v-1.086H623Zm1062-.536h1.2v-1.332H1685Zm-127.665,0v-1.332h-.3v1.332Zm-352.4,0h1.2v-1.332h-1.2Zm-128.869,0h1.2v-1.332h-1.2Zm-350.814,0h1.2v-1.332h-1.2Zm1078.7-.185h1.556v-1.727h-1.556Zm-367.136,0h1.558v-1.727h-1.558Zm-112.928,0h1.556v-1.727H1323.9Zm-367.136,0h1.557v-1.727h-1.557Zm-479.684,0h1.557v-1.727h-1.557Zm1288.3-.2h1.3v-1.444h-1.3Zm-289.709,0h1.3v-1.444h-1.3Zm-190.353,0h1.3v-1.444h-1.3Zm-289.711,0h1.3v-1.444h-1.3Zm-189.974,0h1.3v-1.444h-1.3Zm-289.711,0h1.3v-1.444h-1.3Zm1388.487-.062h1.548v-1.72h-1.548Zm-136.743,0h1v-1.115h-1Zm-343.321,0h1.548v-1.72h-1.548Zm-136.743,0h1v-1.115h-1Zm-342.94,0h1.547v-1.72h-1.547Zm-136.744,0h1v-1.115h-1Zm665.761,0h1v-1.114h-1Zm-480.063,0h1v-1.114h-1Zm-479.684,0h1v-1.114h-1Zm1255.333-.064h1v-1.114h-1Zm-297.181,0h1v-1.114h-1Zm-182.883,0h1v-1.114h-1Zm-297.181,0h1v-1.114h-1Zm-182.5,0h1v-1.114h-1Zm-297.181,0h1v-1.114h-1Zm1389.868-.191h1.545v-1.718H1902.2Zm-480.064,0h1.545v-1.718h-1.545Zm-479.683,0H944v-1.718h-1.545Zm754.621-.707h1.206v-1.331h-1.206Zm-153.012,0h1.2v-1.331h-1.2Zm-327.052,0h1.206v-1.331h-1.206Zm-153.012,0h1.2v-1.331H1064Zm-326.672,0h1.206v-1.331h-1.206Zm-153.012,0h1.2v-1.331h-1.2Zm1070.494-.169h1.122v-1.255h-1.122Zm-68.4,0h1.128v-1.255h-1.128Zm-411.661,0h1.122v-1.255h-1.122Zm-68.4,0h1.128v-1.255h-1.128Zm-411.28,0h1.122v-1.255h-1.122Zm-68.4,0h1.128v-1.255h-1.128Zm1031.7-.084h1.125v-1.244h-1.125Zm-5.542,0h1.122v-1.244h-1.122Zm-64.421,0h1.126v-1.244H1588.4Zm-5.539,0h1.122v-1.244h-1.122Zm-404.562,0h1.125v-1.244H1178.3Zm-5.542,0h1.122v-1.244h-1.122Zm-64.421,0h1.126v-1.244h-1.126Zm-5.539,0h1.122v-1.244h-1.122Zm-404.181,0h1.124v-1.244h-1.124Zm-5.542,0h1.122v-1.244h-1.122Zm-64.421,0h1.125v-1.244H628.65Zm-5.54,0h1.122v-1.244H623.11Zm1033.458-.152h.909v-1.019h-.909Zm-5.545,0h.914v-1.013h-.914Zm-60.621,0h.912v-1.013h-.912Zm-5.546,0h.917v-1.019h-.917Zm-408.352,0h.909v-1.019h-.909Zm-5.545,0h.916v-1.013h-.916Zm-60.621,0h.911v-1.013h-.911Zm-5.545,0h.916v-1.019h-.916Zm-407.972,0h.908v-1.019h-.908Zm-5.546,0h.915v-1.013h-.915Zm-60.621,0h.911v-1.013h-.911Zm-5.545,0h.916v-1.019h-.916Zm1267.071-1.161h1.4v-1.544h-1.4Zm-480.064,0h1.4v-1.544h-1.4Zm-479.683,0h1.4v-1.544h-1.4Zm964.142-.095h1.393v-1.552h-1.393Zm-480.064,0h1.393v-1.552h-1.393Zm-479.684,0h1.393v-1.552h-1.393Zm840.174-.275h1.2V5083.8H1777Zm-312.862,0h1.2V5083.8h-1.2Zm-646.885,0h1.2V5083.8h-1.2Zm-312.863,0h1.2V5083.8h-1.2Zm1390.075-.038h1.469v-1.635h-1.469Zm-480.064,0h1.469v-1.635H1414.4Zm-479.683,0h1.469v-1.635h-1.469Zm844.2-.053h.3v-1.335h-.3Zm-316.7,0h1.2v-1.335h-1.2Zm-643.047,0h1.208v-1.335H819.17Zm-316.7,0h1.2v-1.335h-1.2ZM1811,5085h1.35v-2.16H1811Zm-381.006,0h1.356v-2.16h-1.356Zm-99.058,0h1.35v-2.16h-1.35Zm-381.006,0h1.356v-2.16h-1.356Zm-98.678,0h1.35v-2.16h-1.35Zm-381.006,0H471.6v-2.16h-1.356Zm1431.462-.184h1.541V5083.1h-1.541Zm-480.064,0h1.541V5083.1h-1.541Zm-479.684,0H943.5V5083.1h-1.542Zm-46.893-.337h1.185V5082.7h-1.185Zm757.94-.036h1.129v-1.25H1653Zm-64.791,0h1.126v-1.25h-1.126Zm-415.273,0h1.129v-1.25h-1.129Zm-64.79,0h1.125v-1.25h-1.125Zm-414.895,0h1.129v-1.25h-1.129Zm-64.79,0h1.125v-1.25h-1.125Zm1275.245,0h1.544v-1.715h-1.544Zm-480.063,0h1.543v-1.715h-1.543Zm-479.684,0h1.543v-1.715h-1.543Zm865.228-.037h1.1v-1.515h-1.1Zm-377.142,0h1.1v-1.515h-1.1Zm-102.922,0h1.1v-1.515h-1.1Zm-377.142,0h1.1v-1.515h-1.1Zm-102.542,0h1.1v-1.515h-1.1Zm-377.142,0h1.1v-1.515h-1.1Zm1222.569-.028h1.208v-1.332h-1.208Zm-148.6,0h1.2v-1.332h-1.2Zm-331.461,0h1.208v-1.332h-1.208Zm-148.6,0h1.205v-1.332H1066.2Zm-331.081,0h1.208v-1.332h-1.208Zm-148.6,0h1.205v-1.332h-1.205Zm1069.625-.034h1.3V5082.9h-1.3Zm-71.244,0h1.3V5082.9h-1.3Zm-408.82,0h1.3V5082.9h-1.3Zm-71.244,0h1.3V5082.9h-1.3Zm-408.439,0h1.3V5082.9h-1.3Zm-71.245,0h1.3V5082.9h-1.3Zm1026.06-.054h.916v-1.013h-.916Zm-61,0h.916v-1.013h-.916Zm-419.069,0h.916v-1.013h-.916Zm-61,0h.916v-1.013h-.916Zm-418.688,0h.915v-1.013h-.915Zm-61,0h.916v-1.013h-.916Zm1027.745-.039h1.3v-1.433h-1.3Zm-75.382,0h1.3v-1.433h-1.3Zm-404.682,0h1.3v-1.433h-1.3Zm-75.382,0h1.3v-1.433h-1.3Zm-404.3,0h1.3v-1.433h-1.3Zm-75.381,0h1.3v-1.433h-1.3Zm1053.1-.128h1.2v-1.336h-1.2Zm-111.23,0h1.2v-1.336h-1.2Zm-368.834,0h1.2v-1.336h-1.2Zm-111.229,0h1.2v-1.336h-1.2Zm-368.455,0h1.2v-1.336h-1.2Zm-111.23,0h1.2v-1.336h-1.2Zm1195.853-.056h1.563v-1.732h-1.563Zm-480.064,0h1.563v-1.732h-1.563Zm118.73,0h1.561v-1.731h-1.561Zm-480.063,0h1.56v-1.731h-1.56Zm-479.684,0h1.561v-1.731h-1.561Zm1310.95-.373h.972v-1.339h-.972Zm-340.484,0h.97v-1.339h-.97Zm-139.58,0h.971v-1.339h-.971Zm-340.484,0h.97v-1.339h-.97Zm-139.2,0h.972v-1.339h-.972Zm-340.483,0h.97v-1.339h-.97Zm1152.7-.042h1.129V5082.4H1643.4Zm-45.582,0h1.129V5082.4h-1.129Zm-434.482,0h1.129V5082.4h-1.129Zm-45.58,0h1.128V5082.4h-1.128Zm-434.1,0h1.129V5082.4h-1.129Zm-45.581,0H639.2V5082.4h-1.128Zm1154.4-.04h.973v-1.342h-.973Zm-343.576,0h.976v-1.342h-.976Zm-136.488,0h.973v-1.342h-.973Zm-343.576,0h.976v-1.342h-.976Zm-136.108,0h.972v-1.342h-.972Zm-343.577,0h.976v-1.342h-.976Zm1152.458-.119h.916v-1.013h-.916Zm-41.784,0h.912v-1.013h-.912Zm-438.28,0h.916v-1.013h-.916Zm-41.784,0h.912v-1.013h-.912Zm-437.9,0h.916v-1.013h-.916Zm-41.784,0h.912v-1.013h-.912Zm1060.02-.527h1.206v-1.334h-1.206Zm-159.05,0h1.2v-1.334h-1.2Zm-321.014,0h.531v-1.334h-.531Zm-159.05,0h1.2v-1.334h-1.2Zm-320.633,0h1.2v-1.334h-1.2Zm-159.05,0h1.2v-1.334h-1.2Zm1073.795-1.039h1.122v-1.249h-1.122Zm-5.544,0h1.125v-1.249h-1.125Zm-57.879,0h1.125v-1.249h-1.125Zm-5.542,0h1.125v-1.249h-1.125Zm-411.1,0h1.123v-1.249h-1.123Zm-5.544,0h1.125v-1.249h-1.125Zm-57.879,0h1.125v-1.249H1111.6Zm-5.542,0h1.125v-1.249h-1.125Zm-410.719,0h1.123v-1.249h-1.123Zm-5.544,0h1.125v-1.249H689.8Zm-57.879,0h1.125v-1.249h-1.125Zm-5.542,0H627.5v-1.249h-1.125Zm1200.865-.023h1.188v-1.777h-1.188Zm-480.064,0h1.188v-1.777h-1.188Zm-479.684,0h1.189v-1.777h-1.189Zm791.147-.052h1.122v-1.253h-1.122Zm-5.542,0h1.126V5080.6H1653.1Zm-64.981,0h1.122V5080.6h-1.122Zm-5.542,0h1.122v-1.253h-1.122Zm-404,0h1.122v-1.253h-1.122Zm-5.542,0h1.126V5080.6h-1.126Zm-64.981,0h1.122V5080.6h-1.122Zm-5.542,0h1.122v-1.253h-1.122Zm-403.62,0h1.122v-1.253h-1.122Zm-5.541,0h1.125V5080.6h-1.125Zm-64.981,0h1.121V5080.6h-1.121Zm-5.542,0h1.122v-1.253h-1.122Zm1069.49-.042h1.2v-1.333h-1.2Zm-480.064,0h1.2v-1.333h-1.2Zm-143.5,0h1.2v-1.333h-1.2Zm-336.184,0h1.2v-1.333h-1.2Zm-143.5,0h1.2v-1.333h-1.2Zm1067.777-.121h.912v-1.011h-.912Zm-5.542,0h.908v-1.011h-.908Zm-61.184,0h.916v-1.011h-.916Zm-5.541,0h.911v-1.011h-.911Zm-407.8,0h.912v-1.011h-.912Zm-5.542,0h.908v-1.011h-.908Zm-61.184,0h.917v-1.011h-.917Zm-5.541,0h.912v-1.011h-.912Zm-407.416,0h.911v-1.011H697.1Zm-5.543,0h.908v-1.011h-.908Zm-61.183,0h.915v-1.011h-.915Zm-5.542,0h.911v-1.011h-.911Zm752.683-.023v-1.844h-.109v1.844Zm-481.02,0h1.336v-1.844H896.5Zm1007.758-.083h1.552v-1.729h-1.552Zm-480.064,0h1.552v-1.729h-1.552Zm-479.684,0h1.553v-1.729h-1.553Zm731.813-.314h1.207v-1.341h-1.207Zm-111.5,0h1.2v-1.341h-1.2Zm-368.564,0h1.208v-1.341h-1.208Zm-111.5,0h1.2v-1.341h-1.2Zm-368.184,0h1.208v-1.341h-1.208Zm-111.5,0h1.2v-1.341h-1.2Zm1098.618-.361h1.211v-1.333h-1.211Zm-166.245,0h1.2v-1.333h-1.2Zm-793.5,0h1.21v-1.333h-1.21Zm-166.245,0h1.2v-1.333h-1.2Zm950.171-.833h1.559v-1.731h-1.559Zm-295.014,0h1.558v-1.731h-1.558Zm-185.05,0h1.559v-1.731H1047.8Zm-294.634,0h1.557v-1.731h-1.557Zm-185.05,0h1.561v-1.731h-1.561Zm957.358-.072h1.2v-1.329h-1.2Zm-289.88,0h1.2v-1.329h-1.2Zm-190.184,0h1.2v-1.329h-1.2Zm-289.5,0h1.205v-1.329h-1.205Zm-190.184,0h1.2v-1.329h-1.2Zm957.829-.082h1.2v-1.332h-1.2Zm-286.039,0h1.2v-1.332h-1.2Zm-194.025,0h1.2v-1.332h-1.2Zm-285.659,0h1.2v-1.332h-1.2Zm-194.025,0h1.2v-1.332h-1.2Zm1136.419-.976h1.564v-1.729h-1.564Zm-159.674,0h1.557v-1.729h-1.557Zm-320.39,0h.4v-1.729h-.4Zm-159.674,0h1.557v-1.729h-1.557Zm-320.01,0h1.565v-1.729h-1.565Zm-159.674,0h1.557v-1.729h-1.557Zm1095.2-.4h1.387V5077H1676Zm-111.058,0h1.394V5077h-1.394Zm-369.006,0h1.387V5077h-1.387Zm-111.058,0h1.4V5077h-1.4Zm-368.626,0h1.388V5077h-1.388Zm-111.058,0h1.4V5077h-1.4Zm1075.977-.086h1.2v-1.336h-1.2Zm-121.211,0h1.2v-1.336h-1.2Zm-358.853,0h1.2v-1.336h-1.2Zm-121.211,0h1.2v-1.336h-1.2Zm-358.473,0h1.2v-1.336h-1.2Zm1109.92-.13h1.334v-1.845h-1.334Zm-480.064,0h1.335v-1.845h-1.335Zm-479.684,0h1.335v-1.845H871.6Zm932.361-.047h.964v-1.331h-.964Zm-366.545,0h.973v-1.331h-.973Zm-113.519,0h.964v-1.331h-.964Zm-366.545,0h.973v-1.331h-.973Zm-479.684,0h.973v-1.331h-.973Zm1426.159-.081h1.553v-1.722h-1.553Zm-98.326,0h.969v-1.332h-.969Zm-369.633,0h.972v-1.332h-.972Zm-12.106,0h1.554v-1.722h-1.554Zm-98.326,0h.969v-1.332h-.969Zm-369.633,0h.972v-1.332H955.8Zm-11.726,0h1.554v-1.722h-1.554Zm-97.357,0v-1.332h-.565v1.332Zm-370.6,0h.973v-1.332h-.973Zm1287.3-.962h1.559V5075.5h-1.559Zm-286.063,0h1.564V5075.5h-1.564Zm-194,0h1.56V5075.5h-1.56Zm-286.063,0h1.565V5075.5h-1.565Zm-193.62,0h1.559V5075.5h-1.559Zm-286.063,0h1.564V5075.5h-1.564Zm1248.555-.061h1.2v-1.343h-1.2Zm-291.2,0h1.208v-1.343h-1.208Zm-188.867,0h1.2v-1.343h-1.2Zm-291.2,0h1.208v-1.343H994.9Zm-188.486,0h1.2v-1.343h-1.2Zm-291.2,0h1.207v-1.343h-1.207Zm1252.864-.093h1.2v-1.333h-1.2Zm-295.033,0h1.2v-1.333h-1.2Zm-185.031,0h1.2v-1.333h-1.2Zm-295.034,0h1.2v-1.333h-1.2Zm-184.651,0h1.2v-1.333h-1.2Zm-295.032,0h1.2v-1.333h-1.2Zm1296.9-.618h1.2v-1.336h-1.2Zm-379.263,0h1.2v-1.336h-1.2Zm-100.8,0h1.2v-1.336h-1.2Zm-379.263,0h1.2v-1.336h-1.2Zm-100.42,0h1.2v-1.336h-1.2Zm-379.264,0h1.2v-1.336h-1.2Zm1207.775-.71h1.207v-1.333h-1.207Zm-116.8,0h1.207v-1.333h-1.207Zm-363.264,0h1.207v-1.333H1198.9Zm-116.8,0h1.207v-1.333H1082.1Zm-362.884,0h1.207v-1.333h-1.207Zm964.976-1.418h1.2V5073h-1.2Zm-126.041,0V5073h-1.116v1.332Zm-354.023,0h1.2V5073h-1.2Zm-127.248,0h1.207V5073h-1.207Zm-352.435,0h1.2V5073h-1.2Zm972.048-.256h1.2v-1.336h-1.2Zm-480.064,0h1.2v-1.336h-1.2Zm-479.684,0h1.2v-1.336h-1.2Zm807.9,0h1.2v-1.334h-1.2Zm-480.064,0h1.2v-1.334h-1.2Zm-479.684,0h1.2v-1.334h-1.2Zm1118.914-.511h1.2v-1.334h-1.2Zm-166.479,0h1.2v-1.334h-1.2Zm-793.27,0h1.2v-1.334h-1.2Zm-166.478,0h1.2v-1.334h-1.2Zm1098.83-.385h1.206v-1.336h-1.206Zm-111.694,0h1.208v-1.336h-1.208Zm-368.37,0h1.206v-1.336h-1.206Zm-111.694,0h1.208v-1.336h-1.208Zm-367.989,0h1.2v-1.336h-1.2Zm-111.694,0h1.207v-1.336h-1.207Zm1196.408-1.1h1.2v-1.335h-1.2Zm-361.621,0h1.2v-1.335h-1.2Zm-118.442,0h1.2v-1.335h-1.2Zm-361.622,0h1.2v-1.335h-1.2Zm-479.684,0h1.2v-1.335h-1.2Zm415.036-.028h1.2v-1.335h-1.2Zm796.826-.321h1.561v-1.729h-1.561Zm-480.064,0h1.561v-1.729h-1.561Zm-142.968,0h1.563v-1.729h-1.563Zm-336.716,0h1.562v-1.729h-1.562Zm-142.968,0h1.564v-1.729h-1.564Zm1105.459-.057h1.211v-1.338h-1.211Zm-148.1,0h1.207v-1.338h-1.207Zm-331.963,0h1.211v-1.338h-1.211Zm-148.1,0h1.207v-1.338h-1.207Zm-331.583,0h1.212v-1.338h-1.212Zm-148.1,0h1.206v-1.338h-1.206Zm1109.774-.086h1.2v-1.339h-1.2Zm-151.946,0h1.207v-1.339H1544.6Zm-328.118,0h1.2v-1.339h-1.2Zm-151.946,0h1.207v-1.339h-1.207Zm-327.739,0h1.2v-1.339h-1.2Zm-151.946,0h1.207v-1.339h-1.207Zm1115.282-.251h1.134v-1.255h-1.134Zm-159.048,0h1.128v-1.255h-1.128Zm-321.016,0h.495v-1.255h-.495Zm-159.048,0h1.128v-1.255h-1.128Zm-320.635,0h1.134v-1.255h-1.134Zm-159.048,0h1.128v-1.255h-1.128ZM1904,5070.484h1.557v-1.738H1904Zm-480.064,0h1.557v-1.738h-1.557Zm-479.684,0h1.557v-1.738h-1.557Zm864.584-.071h1.56v-1.728h-1.56Zm-376.885,0h1.557v-1.728h-1.557Zm-103.179,0h1.559v-1.728h-1.559Zm-376.885,0h1.557v-1.728h-1.557Zm-102.8,0h1.56v-1.728h-1.56Zm-376.885,0h1.557v-1.728H472.2Zm1212.13-.1h1.555v-1.73h-1.555Zm-126.315,0v-1.73h-.98v1.73Zm-353.749,0h1.555v-1.73h-1.555Zm-127.875,0h1.561v-1.73h-1.561Zm-351.809,0h1.556v-1.73h-1.556Zm932.119-.3h.979v-1.077h-.979Zm-72.033,0h.975v-1.077h-.975Zm-408.031,0h.979v-1.077h-.979Zm-72.033,0h.976v-1.077h-.976Zm-407.651,0h.979v-1.077h-.979Zm-72.032,0h.975v-1.077h-.975Zm1033.333-.071h.973v-1.076h-.973Zm-75.133,0h.966v-1.076h-.966Zm-404.931,0h.973v-1.076h-.973Zm-75.133,0h.966v-1.076h-.966Zm-404.551,0h.973v-1.076H698.5Zm-75.133,0h.966v-1.076h-.966Zm1103.689-.237h1.2v-1.333h-1.2Zm-212.981,0h1.2v-1.333h-1.2Zm-267.083,0h1.2v-1.333H1247Zm-212.981,0h1.2v-1.333h-1.2Zm-479.684,0h1.2v-1.333h-1.2Zm1175-.136h1.208v-1.339h-1.208Zm-217.524,0h1.2v-1.339h-1.2Zm-262.54,0h1.208v-1.339h-1.208Zm-217.524,0h1.2v-1.339h-1.2Zm-479.684,0h1.2v-1.339h-1.2Zm1249.462-.343h1.2v-1.338h-1.2Zm-361.9,0h1.208v-1.338h-1.208Zm-118.165,0h1.2v-1.338h-1.2Zm-361.9,0h1.208v-1.338h-1.208Zm-479.684,0h1.207v-1.338h-1.207Zm1218.3-.032h1.394v-1.542h-1.394Zm-155.4,0h1.4v-1.542h-1.4Zm-324.667,0h1.4v-1.542h-1.4Zm-155.4,0h1.4v-1.542h-1.4Zm-324.286,0h1.394v-1.542h-1.394Zm-155.4,0h1.4v-1.542h-1.4Zm1119.536-.091h1.4v-1.549h-1.4Zm-164.182,0h1.394v-1.55h-1.394Zm-478.669,0v-1.55h-.8v1.55Zm-316.9,0h1.4v-1.549h-1.4Zm-164.183,0h1.4v-1.55h-1.4Zm1211.2-.021h1.312v-1.458h-1.312Zm-338.645,0h1.31v-1.459h-1.31Zm-141.419,0h1.312v-1.458h-1.312Zm-338.645,0h1.31v-1.459h-1.31Zm-141.039,0H831.4v-1.458h-1.312Zm-338.644,0h1.309v-1.459h-1.309Zm1300.48-.091h1.312v-1.456h-1.312Zm-342.816,0h1.305v-1.456h-1.305Zm-137.248,0h1.313v-1.456h-1.312Zm-342.816,0h1.305v-1.456h-1.305Zm-136.868,0h1.313v-1.456h-1.313Zm-342.816,0h1.305v-1.456H489.36Zm1371.616-.374v-1.544h-.261v1.544Zm-481.458,0h1.4v-1.544h-1.4Zm-479.684,0h1.4v-1.544h-1.4Zm964.142-.092h1.4v-1.548h-1.4Zm-480.064,0h1.4v-1.548h-1.4Zm-479.684,0h1.4v-1.548h-1.4Zm957.639-.321h1.468v-1.632h-1.468Zm-480.064,0h1.468v-1.632H1381.8Zm-479.684,0h1.469v-1.632h-1.469Zm755.878-.45h1.121v-1.246H1658Zm-74.771,0h1.117v-1.246h-1.117Zm-405.293,0h1.122v-1.246h-1.122Zm-74.771,0h1.118v-1.246h-1.118Zm-404.914,0h1.122v-1.246h-1.122Zm-74.771,0h1.118v-1.246h-1.118Zm1143.549-.142h1.209v-1.333h-1.209Zm-292.921,0h1.206v-1.333H1474.1Zm-187.143,0h1.209v-1.333h-1.209Zm-292.921,0h1.206v-1.333h-1.206Zm-186.764,0h1.209v-1.333h-1.209Zm-292.921,0h1.207v-1.333h-1.207ZM1656.2,5067.6h.911v-1.009h-.911Zm-70.977,0h.909v-1.009h-.909Zm-409.087,0h.911v-1.009h-.911Zm-70.977,0h.909v-1.009h-.909Zm-408.707,0h.912v-1.009h-.912Zm-70.977,0h.909v-1.009h-.909Zm1101.226-.308h1.2v-1.336h-1.2Zm-212.272,0h1.208v-1.336h-1.208Zm-267.792,0h1.2v-1.336h-1.2Zm-212.272,0h1.208v-1.336h-1.208Zm-479.683,0h1.207v-1.336h-1.207Zm1246.514-.779h1.393v-1.544H1801.2Zm-361.45,0h1.4v-1.544h-1.4Zm-118.614,0h1.393v-1.544h-1.393Zm-361.449,0h1.394v-1.544h-1.394Zm-479.684,0h1.4v-1.544H480Zm1222.471-.078h1.2V5065.1h-1.2Zm-163.812,0h1.205V5065.1h-1.205Zm-478.859,0V5065.1h-.887v1.337Zm-317.077,0h1.2V5065.1h-1.2Zm-163.812,0h1.2V5065.1h-1.2Zm1227.454-.009h1.209v-1.335h-1.209Zm-371.6,0h1.2v-1.335h-1.2Zm-108.461,0h1.208v-1.335h-1.208Zm-371.6,0h1.2v-1.335h-1.2Zm-108.081,0h1.208v-1.335h-1.208Zm-371.6,0h1.2v-1.335h-1.2Zm1211.818-.035h1.206v-1.338h-1.206Zm-480.064,0h1.206v-1.338h-1.206Zm-132.543,0h1.2v-1.338h-1.2Zm-347.14,0H728.3v-1.338H727.09Zm-132.544,0h1.2v-1.338h-1.2Zm935.13-.141h1.2v-1.333h-1.2Zm-298.28,0h1.2v-1.333h-1.2Zm-181.784,0h.644v-1.333h-.644Zm-297.9,0h1.2v-1.333h-1.2Zm-181.784,0h1.2v-1.333h-1.2Zm957.476-.146h1.2v-1.338h-1.2Zm-293.738,0h1.208v-1.338h-1.208Zm-186.326,0h1.2v-1.338h-1.2Zm-293.359,0h1.207v-1.338h-1.207Zm-186.325,0h1.2v-1.338h-1.2Zm1223.921-.064h1.512v-1.679h-1.512Zm-342.331,0h1.512v-1.679h-1.512Zm-137.733,0h1.512v-1.679h-1.512Zm-342.331,0H970.7v-1.679h-1.513Zm-137.353,0h1.513v-1.679h-1.513Zm-342.331,0h1.513v-1.679H489.5Zm1035.984-.022h1.2v-1.329h-1.2Zm-289.9,0h1.208v-1.329h-1.208Zm-190.164,0h1.2v-1.329h-1.2Zm-289.519,0h1.207v-1.329H755.9Zm-190.164,0h1.2v-1.329h-1.2Zm1133.111-.083h1.138v-1.258h-1.138Zm-156.494,0h1.135v-1.258h-1.135Zm-323.57,0h1.138v-1.258h-1.138Zm-156.494,0h1.135v-1.258h-1.135Zm-323.191,0h1.138v-1.258H739.1Zm-156.493,0h1.134v-1.258h-1.134Zm1206.558-.1h1.231v-1.366h-1.231Zm-337.219,0h1.229v-1.366h-1.229Zm-142.845,0h1.231v-1.366H1309.1Zm-337.219,0h1.229v-1.366h-1.229Zm-142.464,0h1.23v-1.366h-1.23Zm-337.22,0h1.23v-1.366H492.2Zm402.685-.125h1.2v-1.335h-1.2Zm811.132-.635h1.2v-1.337h-1.2Zm-170.892,0h1.205v-1.337h-1.205Zm-788.857,0h1.2v-1.337h-1.2Zm-170.892,0h1.205v-1.337h-1.205Zm1189.451-.154h1.2v-1.339h-1.2Zm-288.512,0h1.2v-1.339h-1.2Zm-191.552,0h1.2v-1.339h-1.2Zm-288.513,0h1.2v-1.339h-1.2Zm-191.172,0h1.2v-1.339h-1.2Zm-288.512,0h1.2v-1.339h-1.2Zm1295.369-.031h1.617v-1.742h-1.617Zm-383.148,0h1.614v-1.742h-1.614Zm-96.916,0h1.618v-1.742h-1.618Zm-383.148,0h1.615v-1.742h-1.615Zm-96.537,0H853.8v-1.742h-1.618Zm-383.148,0h1.615v-1.742h-1.615Zm1227.509-.576h1.391v-1.545h-1.391Zm-152.149,0h1.4v-1.545h-1.4Zm-327.915,0h1.391v-1.545h-1.391Zm-152.149,0h1.4v-1.545h-1.4Zm-327.536,0h1.392v-1.545H736.8Zm-152.149,0h1.4v-1.545h-1.4Zm1116.295-.1h1.392v-1.544h-1.392Zm-160.942,0h1.4v-1.544H1540Zm-480.064,0h1.4v-1.544h-1.4Zm-318.742,0h1.391v-1.544H741.2Zm-160.943,0h1.4v-1.544h-1.4Zm1099.409-.425h1.208v-1.336h-1.208Zm-118.194,0h1.2v-1.336h-1.2Zm-361.87,0h1.208v-1.336H1199.6Zm-118.194,0h1.2v-1.336h-1.2Zm-361.489,0h1.206v-1.336h-1.206Zm1084.245-.063h1.207v-1.337h-1.207Zm-367.19,0h1.2v-1.337h-1.2Zm-112.874,0h1.206v-1.337H1324.1Zm-367.19,0h1.2v-1.337h-1.2Zm-479.684,0h1.2v-1.337h-1.2Zm1249.219-.1h1.205v-1.336h-1.205Zm-211.747,0h1.2v-1.336h-1.2Zm-268.317,0h1.205v-1.336h-1.205Zm-211.747,0h1.2v-1.336h-1.2Zm-479.684,0h1.2v-1.336h-1.2Zm1215.093-.13h1.212v-1.33h-1.212Zm-298.954,0h1.206v-1.33h-1.206Zm-181.11,0h1.211v-1.33h-1.211Zm-298.954,0h1.205v-1.33h-1.205Zm-180.73,0h1.21v-1.33h-1.21Zm-298.954,0h1.2v-1.33h-1.2Zm1173.015-.083h1.207v-1.331h-1.207Zm-126.372,0v-1.331h-.948v1.331Zm-353.692,0h1.207v-1.331h-1.207Zm-127.572,0h1.2v-1.331h-1.2Zm-352.112,0h1.207v-1.331h-1.207Zm962.02-.146h1.207v-1.336h-1.207Zm-480.064,0h1.207v-1.336h-1.207Zm-132.117,0h1.2v-1.336h-1.2Zm-347.567,0h1.207v-1.336h-1.207Zm-132.117,0h1.057v-1.336h-1.057Zm299.6-.4h1.387v-1.55h-1.387Zm915.021-.563h1.208v-1.329h-1.208Zm-377.638,0h1.205v-1.33h-1.205Zm-102.426,0h1.208v-1.329h-1.208Zm-377.638,0h1.205v-1.33h-1.205Zm-102.046,0h1.208v-1.329h-1.208ZM472,5062.3H473.2v-1.33H472Zm1230.641-.43h1.2v-1.341h-1.2Zm-164.142,0h1.207v-1.341H1538.5Zm-478.857,0v-1.341h-.725v1.341Zm-316.749,0h1.2v-1.341h-1.2Zm-164.142,0h1.207v-1.341H578.75Zm1126.158-.148h1.208v-1.333h-1.208Zm-168.685,0h1.207v-1.333h-1.207Zm-791.063,0h1.208v-1.333H745.16Zm-168.685,0h1.207v-1.333h-1.207Zm1130.353-.081h1.205v-1.34h-1.205Zm-172.519,0h1.2v-1.34h-1.2Zm-787.23,0h1.205v-1.34H747.08Zm-172.518,0h1.2v-1.34h-1.2Zm1227.048-.5h1.207v-1.338h-1.207Zm-362.086,0h1.2v-1.338h-1.2Zm-117.977,0h1.206v-1.338h-1.206Zm-362.087,0h1.2v-1.338h-1.2Zm-479.683,0h1.2v-1.338h-1.2Zm1338.816-.342h1.337v-1.841h-1.337Zm-480.064,0h1.337v-1.841h-1.337Zm-479.684,0h1.337v-1.841h-1.337Zm823.453-.066h1.562V5059H1682.3Zm-123.817,0h1.566V5059h-1.566Zm-356.247,0h1.562V5059h-1.562Zm-123.817,0h1.566V5059h-1.566Zm-355.867,0h1.562V5059h-1.562Zm1098.179-.047h1.335v-1.844h-1.335Zm-480.064,0H1342v-1.844h-1.335Zm-479.684,0h1.335v-1.844h-1.335Zm824.062-.022h1.211v-1.338h-1.211Zm-127.744,0v-1.338h-.261v1.338Zm-352.32,0h1.211v-1.338h-1.211Zm-128.952,0h1.207v-1.338h-1.207Zm-350.732,0H726.5v-1.338h-1.211Zm961.671-.084h1.2v-1.337h-1.2Zm-480.064,0h1.2v-1.337h-1.2Zm-132.79,0h1.2v-1.339h-1.2Zm-346.894,0h1.2v-1.337h-1.2Zm-132.789,0h1.2v-1.339h-1.2Zm1217.486-.148h1.2V5059.1h-1.2Zm-382.687,0h1.2V5059.1h-1.2Zm-97.377,0h1.2V5059.1h-1.2Zm-382.687,0h1.2V5059.1h-1.2Zm-97,0h1.2V5059.1h-1.2Zm-382.687,0h1.2V5059.1h-1.2Zm1262.646-.349h1.554v-1.725h-1.554Zm-223.463,0h1.56v-1.725h-1.56Zm-256.6,0h1.554v-1.725h-1.554Zm-223.463,0h1.559v-1.725H1028.6Zm-479.684,0h1.559v-1.725h-1.559Zm1128.654-.05h1.209v-1.33h-1.209Zm-114,0h1.2v-1.33h-1.2Zm-366.065,0h1.209v-1.33H1197.5Zm-114,0h1.2v-1.33h-1.2Zm-365.686,0h1.209v-1.33h-1.209Zm-112.793,0v-1.33h-.545v1.33Zm1129.842-.019h1.2v-1.331h-1.2Zm-228.6,0h1.2v-1.331h-1.2Zm-251.468,0h1.2v-1.331h-1.2Zm-228.6,0h1.2v-1.331h-1.2Zm-251.088,0h1.2v-1.331h-1.2Zm-228.6,0h1.2v-1.331h-1.2Zm1190.271-.081h1.2V5058.6h-1.2Zm-232.441,0h1.2V5058.6h-1.2Zm-247.623,0h1.2V5058.6h-1.2Zm-232.441,0h1.2V5058.6h-1.2Zm-247.243,0h1.2V5058.6h-1.2Zm-232.441,0h1.2V5058.6h-1.2Zm1231.79-.38h1.2v-1.335h-1.2Zm-311.643,0h1.2v-1.335h-1.2Zm-648.1,0h1.2v-1.335h-1.2Zm-311.644,0h1.2v-1.335H505Zm1265.182-.082h1.556v-1.729h-1.556Zm-299.586,0h1.563v-1.73H1470.6Zm-180.478,0h1.556v-1.729h-1.556Zm-299.587,0h1.563v-1.73h-1.563Zm-180.1,0h1.557v-1.729h-1.557Zm-299.586,0h1.564v-1.73h-1.564Zm1267.466-.006h.9v-1.329h-.9Zm-315.485,0h1.2v-1.329h-1.2Zm-644.263,0h1.2v-1.329h-1.2Zm-315.485,0h1.2v-1.329h-1.2Zm1024.58-.223h1.205v-1.333h-1.205Zm-294.25,0h1.205v-1.333h-1.205Zm-185.814,0h1.205v-1.333H1047.6Zm-293.87,0h1.205v-1.333h-1.205Zm-185.813,0h1.2v-1.333h-1.2Zm1136.448-.056h1.2v-1.341h-1.2Zm-167.586,0h1.2v-1.341h-1.2Zm-792.162,0h1.2v-1.341h-1.2Zm-167.586,0h1.2v-1.341h-1.2Zm1317.089-.228h1.551v-1.714h-1.551Zm-480.064,0h1.55v-1.714h-1.55Zm-479.684,0h1.55v-1.714h-1.55Zm969.44-.1h1.538v-1.712h-1.538Zm-480.064,0h1.538v-1.712h-1.538Zm-479.683,0H945.6v-1.712h-1.537Zm932.509-.539h.969v-1.333h-.969Zm-480.064,0h.969v-1.333h-.969Zm413.02-.041h1.556v-1.725h-1.556Zm-480.064,0h1.556v-1.725h-1.556Zm-479.684,0h1.557v-1.725h-1.557Zm581.481,0h1.558v-1.725h-1.558Zm-480.064,0h1.557v-1.725h-1.557Zm-479.684,0h1.557v-1.725h-1.557Zm1406.6-.041h.968v-1.332h-.968Zm-480.064,0h.968v-1.332h-.968Zm408.924-.181h1.559v-1.728h-1.559Zm-373.167,0h1.557v-1.728h-1.557Zm-106.9,0h1.56v-1.728h-1.56Zm-373.166,0H955.3v-1.728h-1.556Zm-106.518,0h1.56v-1.728h-1.56Zm-373.166,0h1.556v-1.728H474.06Zm1255.51-.132h1.21v-1.338h-1.21Zm-218.009,0h1.206v-1.338h-1.206Zm-262.055,0h1.211v-1.338h-1.211Zm-218.009,0h1.206v-1.338H1031.5Zm-479.684,0h1.206v-1.338h-1.206Zm1147.354-.068h1.2v-1.333h-1.2Zm-157.2,0h1.2v-1.333h-1.2Zm-322.868,0h1.2v-1.333h-1.2Zm-157.2,0h1.2v-1.333h-1.2Zm-322.487,0h1.2v-1.333h-1.2Zm-157.2,0h1.2v-1.333h-1.2Zm1100.333-.166h1.211v-1.335h-1.211Zm-123.979,0h1.2v-1.335h-1.2Zm-356.085,0h1.211v-1.335h-1.211Zm-123.978,0h1.2v-1.335h-1.2Zm-355.706,0h1.211v-1.335h-1.211Zm962.02-.143h1.212v-1.335h-1.212Zm-127.318,0v-1.335h-.475v1.335Zm-352.746,0h1.211v-1.335h-1.211Zm-128.525,0h1.208v-1.335h-1.208Zm-351.158,0h1.211v-1.335h-1.211Zm961.673-.088h1.205v-1.329h-1.205Zm-6.864,0h1.208v-1.329h-1.208Zm-118.646,0h1.2v-1.329h-1.2Zm-354.554,0h1.205v-1.329h-1.205Zm-6.863,0h1.208v-1.329h-1.208Zm-118.647,0h1.2v-1.329h-1.2Zm-6.861,0h1.2v-1.329h-1.2Zm-347.313,0h1.205v-1.329h-1.205Zm-6.863,0h1.207v-1.329h-1.207Zm-125.507,0h1.184v-1.329h-1.184Zm935.228-.915h1.205v-1.332h-1.205Zm-298.657,0h1.2v-1.332h-1.2Zm-181.407,0h.457v-1.332h-.457Zm-298.277,0h1.2v-1.332h-1.2Zm-181.406,0h1.2v-1.332h-1.2Zm1134.034-.473h1.2v-1.338h-1.2Zm-167.161,0h1.2v-1.338h-1.2Zm-792.587,0h1.2v-1.338h-1.2Zm-167.16,0h1.2v-1.338h-1.2Zm800.29-.264h1.129v-1.259h-1.129Zm-479.683,0h1.128v-1.259h-1.128Zm866.043-.047h1.568v-1.733h-1.568Zm-66.707,0h1.207v-1.333h-1.207Zm-153.233,0h1.2v-1.333h-1.2Zm-67.067,0h1.562v-1.733h-1.562Zm-193.058,0h1.568v-1.733h-1.568Zm-66.707,0h1.207v-1.333h-1.207Zm-153.233,0h1.2v-1.333h-1.2Zm-67.067,0h1.562v-1.733H996.82Zm-192.678,0h1.568v-1.733h-1.568Zm-66.707,0h1.207v-1.333h-1.207Zm-153.233,0h1.2v-1.333h-1.2Zm-67.066,0H518.7v-1.733h-1.561Zm1249.506-.074h1.206v-1.331h-1.206Zm-292.148,0h1.208v-1.331h-1.208Zm-187.916,0h1.207v-1.331h-1.207Zm-292.148,0h1.207v-1.331h-1.207Zm-187.536,0H808.1v-1.331h-1.207Zm-292.147,0h1.206v-1.331h-1.206Zm1180.739-.058h1.132v-1.255h-1.132Zm-149.766,0h1.131v-1.255h-1.131Zm-330.3,0h1.132v-1.255h-1.132Zm-149.766,0h1.131v-1.255h-1.131Zm-329.919,0h1.132v-1.255h-1.132Zm-149.766,0H587.1v-1.255h-1.132Zm1182.588-.021h1.2v-1.334h-1.2Zm-295.985,0h1.2v-1.334h-1.2Zm-184.079,0h1.2v-1.334h-1.2Zm-295.985,0h1.2v-1.334h-1.2Zm-183.7,0h1.2v-1.334h-1.2Zm-295.986,0h1.2v-1.334h-1.2Zm1359.061-.385h1.137v-1.27h-1.137Zm-480.064,0h1.137v-1.27h-1.137Zm-479.684,0h1.138v-1.27H912.14Zm819.786-.006h1.2v-1.329h-1.2Zm-222.718,0h1.205v-1.329h-1.205Zm-257.345,0h1.2v-1.329h-1.2Zm-222.719,0h1.205v-1.329h-1.205Zm-479.683,0h1.2v-1.329h-1.2Zm1326.028-.075h1.141v-1.263h-1.141Zm-480.063,0h1.14v-1.263h-1.14Zm129.214-.012h1.208V5053.8h-1.208Zm-288.208,0h1.2V5053.8h-1.2Zm-191.855,0h1.208V5053.8h-1.208Zm-287.829,0h1.205V5053.8h-1.205Zm-191.856,0H566.1V5053.8h-1.207Zm1328.956-.17h1.543v-1.714h-1.543Zm-480.064,0h1.543v-1.714h-1.543Zm-479.684,0h1.543v-1.714H934.1Zm939.661-.072h1.2v-1.338h-1.2Zm-480.064,0h1.2v-1.338h-1.2Zm-479.684,0h.3v-1.338h-.3Zm768.026-.044h1.392V5053.3h-1.392Zm-6.864,0h1.391V5053.3h-1.391Zm-109.4,0h1.392V5053.3h-1.392Zm-6.864,0h1.4V5053.3h-1.4Zm-356.934,0h1.392V5053.3h-1.392Zm-6.864,0h1.392V5053.3h-1.392Zm-109.4,0h1.392V5053.3h-1.392Zm-6.864,0h1.4V5053.3h-1.4Zm-356.553,0h1.391V5053.3h-1.391Zm-6.865,0h1.392V5053.3h-1.392Zm-109.4,0h1.391V5053.3h-1.391Zm1100.108-.073h1.2v-1.337h-1.2Zm-171.124,0h1.2v-1.337h-1.2Zm-788.624,0h1.2v-1.337h-1.2Zm-171.124,0h1.2v-1.337h-1.2Zm1111.173-.021h1.4v-1.548h-1.4Zm-6.858,0h1.384v-1.548h-1.384Zm-118.2,0h1.4v-1.548h-1.4Zm-355,0h1.4v-1.548h-1.4Zm-6.857,0h1.384v-1.548h-1.384Zm-118.2,0h1.4v-1.548h-1.4Zm-6.858,0h1.392v-1.548h-1.392Zm-347.766,0h1.4v-1.548h-1.4Zm-6.859,0h1.384v-1.548h-1.384Zm-125.059,0h1.051v-1.548h-1.051Zm1082.58-.2h1.135V5053.3h-1.135Zm-113.491,0h1.134V5053.3h-1.134Zm-366.573,0h1.135V5053.3h-1.135Zm-113.491,0h1.134V5053.3h-1.134Zm-366.193,0h1.135V5053.3H717.6Zm-112.357,0V5053.3h-.763v1.259Zm1078.97-.006h1.135V5053.3h-1.135Zm-126.085,0V5053.3h-.264v1.253Zm-353.979,0h1.135V5053.3h-1.135Zm-127.216,0h1.131V5053.3h-1.131Zm-352.468,0H725.6V5053.3h-1.134Zm1087.571-.2h1.2v-1.336h-1.2Zm-382.934,0h1.2v-1.337h-1.2Zm-97.13,0h1.2v-1.336h-1.2Zm-382.933,0h1.2v-1.337h-1.2Zm-96.751,0h1.2v-1.336h-1.2Zm-382.933,0h1.2v-1.337h-1.2Zm1358.784-.921h.833v.185h.973v-.185h.576v.1h.97v-.1H1851.2v-2.909h-23.061Zm-480.064,0h.833v.185h.973v-.185h.577v.1h.97v-.1h17.325v-1.192h-1.3v-.04h-.019v-4.229h-19.354Zm-479.684,0h.833v.185h.973v-.185h.577v.1h.971v-.1h22.893v-5.461H868.39Zm939.016.163h1.388v-1.544h-1.388Zm-373.865,0h1.391v-1.544h-1.391Zm-106.2,0h1.387v-1.544h-1.387Zm-373.865,0h1.39v-1.544h-1.39Zm-105.819,0h1.387v-1.544h-1.387Zm-373.865,0h1.39v-1.544h-1.39Zm1223.667-.065h1.388v-1.547h-1.388Zm-153.971,0h1.392v-1.547h-1.392Zm-326.093,0h1.388v-1.547H1217.4Zm-153.971,0h1.392v-1.547h-1.392Zm-325.714,0H739.1v-1.547h-1.388Zm-153.971,0h1.393v-1.547h-1.393Zm1109.787-.03h1.39v-1.544h-1.39Zm-146.108,0h.1v-1.544h-.1Zm-333.956,0h1.39v-1.544h-1.39Zm-146.108,0h1.394v-1.544h-1.394Zm-333.576,0h1.389v-1.544h-1.389Zm-146.109,0h1.4v-1.544h-1.4Zm1114.89-.027h1.2v-1.335h-1.2Zm-959.747,0h1.2v-1.335h-1.2Zm795.756,0h1.208v-1.334h-1.208Zm-478.857,0v-1.232h-.8v1.232Zm-480.892,0h1.207v-1.334h-1.207Zm1225.484-.081h1.634v-1.808h-1.634Zm-367.91,0h1.636v-1.808H1436.4Zm-112.154,0h1.634v-1.808h-1.634Zm-367.91,0h1.636v-1.808h-1.636Zm-110.141,0v-1.151h-.039v1.151Zm-369.544,0h1.637v-1.808h-1.637Zm1227.834,0h1.2v-1.337h-1.2Zm-167.83,0h1.205v-1.337h-1.205Zm-791.918,0h1.2v-1.337h-1.2Zm-167.829,0h1.2v-1.337h-1.2Zm1199.319-.18h1.208v-1.335h-1.208Zm-311.314,0h1.2v-1.335h-1.2Zm-648.433,0h1.207v-1.335h-1.207Zm-311.316,0h1.2v-1.335h-1.2Zm1200.883-1.794h1.2v-.891h-1.2Zm-170.955,0h1.206v-.891h-1.206Zm-788.792,0h1.2v-1.339h-1.2Zm-170.956,0h1.205v-1.339h-1.205Zm1234.208-.029h1.2v-.862h-1.2Zm-377.964,0h1.2v-.862h-.6v-.475h-.6Zm-102.1,0h1.2v-1.336h-1.2Zm-377.964,0h1.2v-1.336h-1.2Zm-101.719,0H851v-1.336h-1.2Zm-377.965,0h1.2v-1.336h-1.2Zm1339.984-.148h1.2v-.714h-1.2Zm-382.511,0h1.208V5049.9h-1.208Zm-97.552,0h1.2V5049.9h-1.2Zm-382.512,0h1.207V5049.9h-1.207Zm-97.172,0h1.2V5049.9h-1.2Zm-382.512,0h1.207V5049.9h-1.207Zm1323.273-.108h1.4v-.606h-1.4Zm-344.73,0h1.392v-.606h-1.392Zm-135.334,0h1.4v-1.542h-1.4Zm-344.729,0h1.392v-1.542h-1.392Zm-134.955,0h1.4v-1.542h-1.4Zm-344.729,0h1.392v-1.542h-1.392Zm1404.693,0h1.452v-.6h-1.452Zm-480.064,0h1.452v-1.611h-1.452Zm-479.684,0h1.452v-1.611H933.3Zm590.85-.01h1.556v-.593h-1.556Zm-287.59,0h1.561v-1.736h-1.561Zm-192.474,0h1.556v-1.736h-1.556Zm-287.21,0h1.561v-1.736H756.88Zm-192.474,0h1.556v-1.736h-1.556Zm1171.355-.136h1.2v-.457h-1.2Zm-230.378,0h1.2v-.457h-1.2Zm-249.686,0h1.2v-1.334h-1.2Zm-230.378,0h1.2v-1.334h-1.2Zm-249.3,0h1.2v-1.334h-1.2Zm-230.379,0h1.2v-1.334h-1.2Zm1244.987-.036h1.132v-.421h-1.132Zm-340.033,0h1.132v-.421h-1.132Zm-140.031,0h1.132v-1.258h-1.132Zm-340.033,0h1.132v-1.258h-1.132Zm-139.651,0h1.132v-1.258h-1.132Zm-340.032,0h1.131v-1.258h-1.131Zm1204.719-.068h1.2v-.354h-1.2Zm-480.064,0h1.2v-1.334h-1.2Zm-479.684,0h1.205v-1.334h-1.205Zm809.766,0h1.2v-.353h-1.2Zm-480.064,0h1.2v-1.333h-1.2Zm-479.683,0h1.2v-1.333h-1.2Zm1112-.144h1.207v-.209h-1.207Zm-154.53,0h1.2v-.209h-1.2Zm-325.534,0h1.207v-1.339h-1.207Zm-154.53,0h1.2v-1.339h-1.2Zm-325.154,0h1.206v-1.339h-1.206Zm-154.53,0h1.2v-1.339h-1.2Zm476.258-.241v-1.54h-.029v1.54Zm-317.092,0h1.388v-1.54H742.72Zm-163.986,0h1.4v-1.54h-1.4Zm742.724-.052h1.382v-1.874h-1.382Zm-362.087,0h1.386v-1.874h-1.386Zm-479.683,0h1.385v-1.874h-1.385Zm336.266-.077h1.394v-1.549h-1.394Zm-310.463,0h1.4v-1.549h-1.4Zm239.031-.09h1.2v-1.335h-1.2Zm-167.408,0h1.207v-1.335h-1.207Zm747.75-.147h1.065v-1.339h-1.065Zm-368.577,0h1.062v-1.339h-1.062Zm-479.683,0h1.06v-1.339H476.6Zm341.531-.052h1.135v-1.26h-1.135Zm-314.556,0h1.131v-1.26h-1.131Zm1399.106-.268h1.534V5048.1h-1.534Zm-480.064,0h1.534V5048.1h-1.534Zm-479.684,0h1.534V5048.1h-1.534Zm304.375-.372h1.2V5048.1h-1.2Zm-213.609,0h1.2V5048.1h-1.2Zm-479.684,0h1.2V5048.1h-1.2Zm839.365-.46h1.417v-1h-1.417Zm-65.954-.27h1.558v-.733h-1.558Zm-374.2,0h1.56v-.733h-.143l-.252.254-.339-.254h-.826Zm-105.482,0H849.3v-.733h-1.557Zm-374.2,0H475.1v-.733h-1.561Zm957.353-.071h1.209V5047.3h-1.209Zm-100.724,0h1.214v-.662h-1.214Zm-379.34,0h1.209v-.662h-1.209Zm-100.345,0H851.7v-.662h-1.214Zm-379.34,0h1.209V5047.3h-1.209Zm957.831-.079h1.207v-1.338h-1.207Zm-96.884,0h1.206v-.583h-1.206Zm-383.18,0h1.207v-.583h-1.207Zm-96.5,0h1.207v-.583h-1.207Zm-383.179,0h1.206v-1.338h-1.206Zm277.173-.233H747.8v-.35H746.4Zm-171.352,0h1.389v-.35h-1.389Zm707.921-.164h7.641v-.187h-7.641Zm-71.223,0v-.187h-15.44l-.18.187Zm-222.453,0h9.943v-.187H989.3Zm-186.008,0h9.946v-.187h-9.946Zm-212.507,0H594.5v-.187h-3.722Zm-81.169,0h9.943v-.187h-9.943ZM1851.7,5045.43v1.8h2.685v-1.985h-6.27c.733.654,1.442,1.319,2.133,1.985h.95v-1.8Zm-8.1,0v1.8h2.781c-.751-.666-1.53-1.332-2.326-1.985h-4.818v.186h.322v1.8h3.551v-1.8Zm-8.09,0v1.8h1.736v-1.985h-9.1v1.985h2.822v-1.8h.5v1.8H1835v-1.8Zm-22.142,1.8v-.014h-1.206v.014Zm-4.314,0v-.256h-1.557v.256Zm-3.819,0h.689v-1h-1.2v1Zm-34.5-1.8v1.8h2.251v-1.985h-9.041v1.985h2.243v-1.8h.5v1.8h3.554v-1.8Zm-38.57,1.8v-1.082h-1.2v1.082Zm-24.683,0h.067v-.455h-.067Zm-16.243,0h.579v-.6Zm-2.579,0h.27l.354-.361v-1.438h.493v.923l1.083-1.109h-2.2Zm-2.926-1.8v1.692l.136.107h.806v-1.985h-3.448l2.005,1.507v-1.321Zm-4.051,1.8h1.429l-1.429-1.075Zm-23.983-1.8v1.8h23.488v-1.446l-.716-.539h-28.61l-2.255,1.826v.16h3.549v-1.8h.5v1.8h3.545v-1.8Zm-11.25,1.8h.321l.905-.734,1.546-1.251h-2.772Zm-2.181,0h.19v-1.985h-2.081Zm-2.764,0h.476l-.476-.5Zm-4.045-1.8v1.8h3.551v-1.014l-.922-.972h-12.461v1.985h1.235v-1.8h.5v1.8h3.549v-1.8h.5v1.8h3.551v-1.8Zm-12.145,0v1.8h.324v-1.985h-7.957c.734.654,1.446,1.319,2.134,1.985h.957v-1.8h.494v1.8h3.548v-1.8Zm-12.143,0v1.8h2.775c-.748-.666-1.531-1.332-2.324-1.985H1608.8v.186h.318v1.8h3.552v-1.8Zm-8.1,0v1.8h1.742v-1.985h-16.834v1.985h2.452v-1.8h.5v1.8h3.554v-1.8h.493v1.8h3.553v-1.8h.5v1.8h3.552v-1.8Zm-20.236,0v1.8h3.156v-1.985h-16.837v1.985h1.037v-1.8h.5v1.8h3.549v-1.8h.5v1.8h3.552v-1.8h.5v1.8h3.551v-1.8Zm-16.2,0v1.8h.53v-1.985h-16.834v.186h.109v1.8H1556v-1.8h.5v1.8h3.548v-1.8h.5v1.8h3.55v-1.8h.5v1.8h3.551v-1.8Zm-32.879,1.8v-.455h-.962v.455Zm-24.379,0v-1.082h-1.2v1.082Zm-34.332,0h2.036v-1.8h.217v-.186h-2.253Zm-5.562-1.8v1.8h3.55v-1.8h.026v-.186h-5.7v1.985h1.63v-1.8Zm-33.865,1.8v-1h-1.2v1Zm-2.774,0v-.256h-1.561v.256Zm439.871-1.035v-.95h-1.29v.657l.279.293Zm-156.427-.1v-.516l-.181.159v.357Zm-192.684,0v-.85h-1.556v.186h.059v.664Zm193.866-.072h1.208v-.778h-1.208Zm-197.816,0h1.2v-.778h-1.2Zm200.945-.08v-.7H1721.4v.7h.27v-.513h.493v.513Zm-201.661,0v-.7h-1.2v.186h.321v.513Zm186.6-.07v-.628h-.067v.628Zm-172.746,0h.962v-.442h.427v-.186H1534.8Zm272.959-.213h1.2v-.416h-1.2Zm-374.376,0h1.2v-.416h-1.2Zm306.264-.085h.907v-.33h-.907Zm-237.857,0h.9v-.33h-.9Zm309.444-.059v-.271h-1.2v.271h.686v-.085h.5v.085Zm-380.127,0h1.208v-.271h-.128v-.593h.128v-.47h-1.208Zm-959.747,0h1.207v-1.333h-1.207Zm1340.592-.077h1.2v-.194h-1.2Zm-6.865,0h1.2v-.194h-1.2Zm-369.035,0h1.2v-.194h-1.2Zm-6.861,0h1.2V5044.1h-1.2Zm-959.748,0h1.205V5044.1h-1.205Zm1258.061-.02h1.562v-.174H1727.5Zm-212.666,0v-.174h-.145v.174Zm183.189-.058h1.4v-.117h-1.4Zm-155.1,0h1.4v-.117h-1.4Zm298.231-7.617-1.754.739a83.9,83.9,0,0,1,8.046,6.168h6.939v-10.265h1.68v-2.945l-.959.409v0Zm-1.921,6.908h4.083q-1.447-1.159-2.979-2.286c-.354-.258-.74-.51-1.1-.769Zm-1.99,0v-4.425c-2.039-1.361-4.178-2.678-6.427-3.931q-1.327-.74-2.676-1.44v9.8Zm-24.09,0v-.555h-1.2v.555Zm-1.919,0v-.47h-1.2v.47Zm-2.272,0v-.329h-1.2v.329Zm-2.67,0v-.555h-1.2v.555Zm-41.816-19.96s0,.006-.009.008c-.176.036-.349.069-.523.1v19.851h9.041v-2.615h7.8v-18.885A99.664,99.664,0,0,0,1764.474,5024.69Zm-23.92,19.96v-.413h-.907v.413Zm-11.49,0v-.969H1727.5v.969Zm-6.459,0v-.045H1721.4v.045Zm-15.127,0h.067v-.329h-.067Zm-3.631,0v-.926h-1.2v.926Zm-1.827,0v-1.142h-1.206v1.142Zm-2.6,0v-.837h-1.4v.837Zm-8.142-8.139c-.33.1-.654.2-.981.29l-1,.262c-.212.059-.434.107-.646.16v7.427h2.772l.386-.4v-7.9Zm-16.153,2.642,7.312,5.5h4.229V5037.7A65.843,65.843,0,0,1,1675.13,5039.154Zm-22.543,5.5h27.094l-7.22-5.435-1.531.011-2.054-.037-4.106-.077-1.838-.026-.755.01-2.05-.01c-.217,0-.432-.013-.643-.018Zm-6.141,0h3.5l7-5.662-.4,0-.165,0v-.033a64.39,64.39,0,0,1-9.938-1.361Zm-4.64,0h2.649v-7.54c-.206-.051-.405-.1-.615-.151l-.993-.259c-.334-.09-.657-.194-.984-.292l-1.977-.588-1.95-.657-.976-.333-.96-.366-1.924-.728c-.646-.244-1.276-.514-1.909-.771s-1.272-.521-1.906-.792l-.617-.274.72.755-.007,0Zm-14.182,0h11.891l-10.58-11.094,0,.011-1.315-1.386Zm-16.9-6.908h0l-1.757.739a83.515,83.515,0,0,1,8.044,6.168h8.623v-13.21l-.963.409,0,0Zm-1.922,6.908h4.085c-.967-.772-1.955-1.535-2.981-2.286-.36-.258-.739-.51-1.1-.769Zm-18.822,0h16.834v-4.432c-2.042-1.355-4.178-2.671-6.429-3.924a105.08,105.08,0,0,0-9.542-4.693c-.285-.121-.576-.23-.864-.351Zm-18.825,0h16.837v-14.217c-.236-.095-.471-.2-.711-.291v0a104.645,104.645,0,0,0-16.126-4.838Zm-18.818,0h16.834v-19.758a94.962,94.962,0,0,0-16.834-1.742Zm-8.019,0v-.837h-1.4v.837Zm-2.787,0v-1.142h-1.207v1.142Zm-1.836,0v-.926h-1.2v.926Zm-3.5,0v-.329H1534.8v.329Zm-10.579,0v-.287h-1.556v.287Zm-4.665,0v-.045h-1.2v.045Zm-6.253,0h.145v-.969h-.145Zm-12,0v-.413h-.9v.413Zm-25.64,0h2.253V5032.4l-.931-.376v0l-1.322-.537Zm-1.987,0v-12.1l-.694.718-8.52,8.772h3.51v2.615Zm-37.808,0v-.555h-1.2v.555Zm-2.669,0v-.329h-1.2v.329Zm-62.394-2v1.88h.337v-2.074h-8.338c.768.683,1.512,1.377,2.238,2.074h1v-1.88h.526v1.88h3.717v-1.88Zm-12.74,0v1.88h2.917c-.787-.7-1.6-1.392-2.439-2.074h-5.053v.194h.338v1.88h3.723v-1.88Zm-8.484,0v1.88h1.821v-2.074h-4.714v2.074h2.369v-1.88Zm-17.915,1.88v-.433h-1.166v.433Zm-1.884,0v-.347h-1.2v.347Zm-2.272,0v-.206h-1.2v.206Zm-3.4,0h.734v-.433h-.734Zm-33.964-1.88v1.88h1.389v-2.074h-9.946v.194h.063v1.88h3.729v-1.88h.517v1.88h3.729v-1.88Zm-31.247,1.88h.207v-.29h-.907v.29Zm-11.726,0v-.847h-1.118v.847Zm-10.327,0v-.164h-1.561v.164Zm-12.137,0h1.237v-.206h-1.011Zm-4.915,0h.778v-1.02h-1.206v1.02Zm-1.819,0h0v-.715h0Zm-.521,0v-.715h-.877v.715Zm-7.973-1.88v1.88h.884v-2.074h-10.067l-2.021,2.074h2.192v-1.88h.525v1.88h3.718v-1.88h.524v1.88h3.725v-1.88Zm-13.909,1.88h.284l.372-.377v-1.5h.517v.965l1.135-1.159h-2.308Zm-3.069-1.88v1.77l.142.111h.846v-2.074h-3.616l2.1,1.575v-1.381Zm-4.248,1.88h1.5l-1.5-1.124Zm-25.152-1.88v1.88h24.633v-1.512l-.75-.562h-30.007l-2.364,1.907v.167h3.721v-1.88h.528v1.88h3.717v-1.88Zm-11.8,1.88h.336l.95-.766,1.621-1.308h-2.907Zm-2.288,0h.2v-2.074h-2.182Zm-2.9,0h.5l-.5-.52Zm-4.241-1.88v1.88h3.723v-1.06l-.967-1.015h-13.069v2.074h1.3v-1.88h.523v1.88h3.722v-1.88h.525v1.88h3.724v-1.88Zm-12.738,0v1.88h.34v-2.074h-8.346c.77.683,1.518,1.377,2.238,2.074h1v-1.88h.517v1.88H1130v-1.88Zm-12.735,0v1.88h2.91c-.785-.7-1.605-1.392-2.437-2.074h-5.053v.194h.334v1.88h3.724v-1.88Zm-8.492,0v1.88h1.827v-2.074h-17.656v2.074h2.571v-1.88h.521v1.88h3.727v-1.88h.517v1.88h3.725v-1.88h.525v1.88h3.724v-1.88Zm-21.224,0v1.88h3.311v-2.074h-17.659v2.074h1.087v-1.88h.524v1.88h3.722v-1.88h.521v1.88h3.724v-1.88h.521v1.88h3.724v-1.88Zm-16.985,0v1.88h.556v-2.074h-1.178v2.074h.1v-1.88Zm-6.834,1.88v-.715h-1.4v.715Zm-2.786,0v-1.02h-1.208v1.02Zm-1.978,0h.141v-.8h-1.2v.8Zm-3.364,0v-.206h-1.389v.206Zm-11.031,0v-.164h-1.1v.164Zm-10.846,0h.526v-.847h-.526Zm-11.62,0v-.29h-.9v.29Zm-23.713-1.88v1.88h.326v-2.074h-4.472v2.074H998.4v-1.88Zm-8.491,0v1.88h2.26v-2.074H989.3v2.074h.606v-1.88Zm-40.957,1.88-.34-.255v.255Zm-57.181-1.88v1.88h2.351v-2.074H880.7v2.074h2.574v-1.88h.517v1.88h3.727v-1.88h.522v1.88h3.724v-1.88Zm-16.98,0v1.88h3.311v-2.074H868.39v2.074h2.14v-1.88h.526v1.88h3.729v-1.88Zm-21.9,1.88v-.433h-1.2v.433Zm-1.918,0v-.347h-1.2v.347Zm-2.273,0v-.206h-1.2v.206Zm-3.629,0h.959v-.433h-.959Zm-33.964-1.88v1.88h1.615v-2.074h-9.946v2.074h3.564v-1.88h.524v1.88H811.1v-1.88Zm-31.7,1.88v-.29H779.9v.29Zm-21.373,0v-.164h-1.561v.164Zm-11.13,0v-.206H746.4v.206Zm-7.966-.111.143.111h.085v-.715h-.228Zm-29.4-1.77v1.88h22.016v-2.074h-28.14l-2.364,1.907v.167h3.721v-1.88h.528v1.88h3.718v-1.88Zm-11.8,1.88h.336l.95-.766,1.621-1.308H698.25Zm-2.287,0h.2v-2.074h-2.183Zm-2.9,0h.5l-.5-.52Zm-4.242-1.88v1.88h3.723v-1.06l-.967-1.015H678.51v2.074h1.3v-1.88h.525v1.88h3.722v-1.88h.525v1.88H688.3v-1.88Zm-12.737,0v1.88h.34v-2.074H668.08c.77.683,1.517,1.377,2.237,2.074h1v-1.88h.519v1.88h3.72v-1.88Zm-12.735,0v1.88h2.91c-.785-.7-1.6-1.392-2.437-2.074h-5.053v.194h.335v1.88h3.724v-1.88Zm-8.492,0v1.88h1.827v-2.074H639.03v2.074H641.6v-1.88h.521v1.88h3.727v-1.88h.518v1.88h3.725v-1.88h.525v1.88h3.724v-1.88Zm-21.223,0v1.88h3.31v-2.074H619.286v2.074h1.087v-1.88h.525v1.88h3.721v-1.88h.521v1.88h3.725v-1.88h.521v1.88h3.724v-1.88Zm-16.986,0v1.88h.556v-2.074H599.549v.194h.115v1.88h3.73v-1.88h.522v1.88h3.72v-1.88h.523v1.88h3.723v-1.88h.522v1.88h3.724v-1.88Zm-21.23,0v1.88h2.044v-2.074h-6.682v.194h.392v1.88H594.9v-1.88Zm-11.526,1.88h.676v-.715h-1.4v.715Zm-2.111,0v-1.02h-1.208v1.02Zm-1.972,0h.135v-.8h-.135Zm-3.37,0v-.206h-1.389v.206Zm-10.736,0h.157v-.164H565.7Zm-.524,0v-.164H564.3v.164Zm-10.091,0v-.847h-1.557v.847Zm-12.147,0v-.29h-.9v.29Zm-28.184-1.88v1.88h3.723v-1.88h.026v-.194h-8.9v2.074h.38v-1.88h.522v1.88h3.724v-1.88Zm-37.251,1.88v-.433H476.3v.433Zm-2.67,0v-.206h-1.2v.206Zm477.38-.106.033.025v-.266h-.033Zm-184.463.019q.383-.379.773-.76h-.773Zm-24.857-.01.276-.28v-.427H742.9Zm479.684-.375.338-.331h-.338Zm-483.658-.026v-.216h-.288Zm1146.333-.332v-.86l-1.063.86Zm-481.479,0h1.415v-1.243h-1.415Zm-479.683,0h1.414v-1.243H924.1Zm809.564-.147h1.565v-1.731h-1.565Zm-198.747,0h1.391v-1.542h-1.391Zm-27.792,0h1.556v-1.731h-1.556Zm-253.525,0h.5v-1.1h-.5Zm-26.267,0v-.12l-.138.12Zm-172.48,0h1.392v-1.1h-1.392Zm-27.792,0h1.053v-.9h.5v-.194h-1.556Zm-253.146,0h1.565v-1.1h-1.47l-.095.079Zm-27.622,0h1.126v-.9h.265v-.194h-.437l-.954.98Zm-171.124,0h1.392v-1.1h-1.392Zm-26.235,0v-1.1h-1.556v1.1h.827v-.9h.523v.9Zm1355.721-.243h1.294v-1.432h-1.294Zm-480.064,0h1.294v-1.432h-1.294Zm-479.684,0H946.2v-.854h-.6l-.692.558Zm759.31-.373h1.208V5041.6h-1.208Zm-167.295,0h1.211V5041.6h-1.211Zm-480.063,0h.977v-.287h.234v-.194h-1.211Zm-479.684,0h.554v-.48h-.554Zm167.294-.111.362-.37h-.362Zm1062.766-.009h1.392v-1.542h-1.392Zm-373.515,0h1.391v-1.542h-1.391Zm-106.549,0h1.393v-.361h-1.393Zm-479.683,0h1.392v-.361h-1.392Zm-373.516,0h1.392v-.361h-1.392Zm1225.8-.029h1.389v-1.545h-1.389Zm-158.589,0h1.394v-1.545h-1.394Zm-321.474,0h1.388v-.332h-1.388Zm-158.59,0h.958v-.138h.437v-.194h-1.4Zm-321.094,0h.415v-.332h-.415Zm-157.195,0v-.332h-1.4v.332h.736v-.138h.518v.138Zm1228.8-.065h1.4v-1.545h-1.4Zm-6.856,0h1.389v-1.545h-1.389Zm-368.587,0h1.4v-1.545h-1.4Zm-6.864,0h1.392v-1.545h-1.392Zm-97.755,0h1.394v-.267h-1.394Zm-5.469,0v-.267H1324.7v.267h.263v-.073h.525v.073Zm-368.763,0,.182-.187v-.081h-1.4v.194h.342v.073Zm-6.685,0v-.267h-1.056l.357.267Zm-98.768,0h1.394v-.267h-1.394Zm-5.469,0v-.267H845.02v.267h.043v-.073h.52v.073Zm-369.976,0h1.4v-.267h-1.4Zm-6.864,0h1.392v-1.545h-1.392Zm754.58-.159.117-.108h-.117Zm585.263-.037h1.131v-1.253h-1.131Zm-6.864,0h1.127v-1.253h-1.127Zm-363.885,0h1.132v-1.253h-1.132Zm-6.863,0h1.131v-1.253H1431.8Zm-102.452,0h1.131v-.071h-1.131Zm-6.864,0h1.127v-.071h-1.127Zm-370.748,0h1.131v-.071h-1.131Zm-102.072,0H850.8v-.071h-1.132Zm-6.864,0h1.127v-.071H842.8Zm-363.884,0h1.132v-.071h-1.132Zm-6.864,0h1.131v-1.253h-1.131Zm1317.354-.49v-8.285h10.2v-8.858a95.042,95.042,0,0,0-16.837-1.742v18.885Zm-325.867,0,9.135-9.4.805-.834-1.024.457c-.628.271-1.267.525-1.9.795s-1.264.531-1.906.778l-1.924.728-.963.364-.979.334-1.949.665-1.978.593c-.327.1-.653.2-.987.29l-1,.262c-.215.059-.427.107-.643.16v4.812Zm-10.6,0h3.3V5037.7q-1.644.363-3.3.633Zm-96.046-7.421-1.84.773a87.9,87.9,0,0,1,8.438,6.446h9.041v-13.808l-1.007.428v0Zm-2.015,7.22h4.281q-1.517-1.21-3.125-2.39c-.371-.269-.776-.534-1.156-.8Zm-2.088,0v-4.626q-2.276-1.514-4.714-2.951v7.577Zm-19.832,0v-.658h-1.394v.658Zm-2.478,0v-.562h-1.131v.562Zm-1.919,0v-.562h-1.393v.562Zm-2.466,0v-.658H1324.7v.658Zm-2.483,0v-.562h-1.127v.562Zm-27.954,0h13.685v-8.083h3.974v-12.568a99.975,99.975,0,0,0-17.659-1.821Zm-2.081,0v-22.472a102.868,102.868,0,0,0-10.6.665v21.807Zm-39.48,0v-.015h-.5v.015Zm-29.165,0,.261-.233h-1.043v.233Zm-3.836,0v-.593h-1.388v.593Zm-7.21-11.9-11.6,11.9h9.467v-6.107h-1.013v-1.255h3.878v-5.288Zm-2.006-1.055c-.658.282-1.325.548-1.993.83s-1.324.556-2,.814l-2.018.76-1.013.381-1.023.35-2.043.7-2.075.62c-.346.1-.687.209-1.03.3l-1.048.272c-.222.062-.454.113-.678.167v7.764h2.908l12.243-12.562.846-.872Zm-29.107,7.211,7.668,5.745h4.436v-7.266A69.2,69.2,0,0,1,1182.771,5036.089Zm-23.643,5.745h28.416l-7.572-5.68-1.605.011-2.155-.039-4.3-.08-1.929-.026-.792.011-2.151-.011c-.227,0-.452-.015-.673-.02Zm-6.44,0h3.675l7.338-5.918-.417,0-.174,0v-.035a67.851,67.851,0,0,1-10.423-1.423Zm-4.866,0h2.777v-7.88c-.216-.054-.425-.1-.645-.16l-1.042-.269c-.349-.1-.689-.2-1.032-.306l-2.072-.615-2.046-.687-1.024-.349-1.007-.382-2.017-.76c-.678-.255-1.339-.538-2-.807s-1.334-.544-2-.828l-.648-.287.756.79-.007,0Zm-14.874,0h12.472l-11.1-11.6,0,.012-1.379-1.449Zm-17.725-7.22h0l-1.844.773a87.434,87.434,0,0,1,8.438,6.446h9.044v-13.808l-1.01.428,0,0Zm-2.016,7.22h4.284c-1.013-.807-2.05-1.6-3.126-2.39-.379-.269-.776-.534-1.157-.8Zm-19.74,0h17.656V5037.2c-2.142-1.417-4.383-2.793-6.743-4.1a110.481,110.481,0,0,0-10.006-4.9c-.3-.127-.6-.241-.906-.368Zm-19.743,0h17.659v-14.859c-.248-.1-.5-.209-.747-.3v0a110.205,110.205,0,0,0-16.912-5.058Zm-2.081,0v-20.651a99.9,99.9,0,0,0-17.656-1.821v15.109h17.489v1.256h-1.01v6.106Zm-9.132,0v-.593h-1.4v.593Zm-4.446,0v-.233h-1.211v.233Zm-29.451,0v-.015h-1.556v.015Zm-32.427-6.224c-.451.287-.9.579-1.341.871l-.08.051v5.3h4.472v-8.062Q997.68,5034.672,996.187,5035.61Zm-3.7,2.468q-2.607,1.821-4.95,3.756h5.15v-3.9C992.618,5037.986,992.549,5038.036,992.483,5038.078Zm-17.452,3.756h8.227a82.576,82.576,0,0,1,8.88-6.881l-.883-.354-14.84-5.962v0l-1.385-.561Zm-2.085,0v-12.652l-.728.751-3.623,3.718,2.909-.048h.047v.148h1.323v8.083Zm-15.433,0v-.658h-1.4v.658Zm-4.646,0v-.562h-1.131v.562Zm-2.221,0v-.658h-1.392v.658Zm-69.946,0h13.936v-6.982q-1.48-.893-3.024-1.751a110.208,110.208,0,0,0-10-4.9c-.3-.127-.606-.245-.907-.368Zm-2.084,0v-14.859c-.251-.1-.5-.209-.75-.3v0q-4.679-1.816-9.476-3.2v18.364Zm-25.343,0v-.658h-1.394v.658Zm-2.477,0v-.562h-1.132v.562Zm-1.92,0v-.562h-1.392v.562Zm-2.466,0v-.658H845.02v.658Zm-2.483,0v-.562H842.8v.562Zm-21.891-20.863s0,.006-.01.009c-.184.036-.365.072-.549.106v20.747h8.18v-8.083h9.482v-14.389A105.02,105.02,0,0,0,822.036,5020.971Zm-2.641,20.863v-20.347c-.266.054-.537.1-.8.156v-.013a111.563,111.563,0,0,0-15.306,4.355v15.849Zm-44.628,0h.71v-.015h-.693Zm-29.34,0,.227-.233h-1.189v.233Zm-4.989,0v-.593h-.415v.593Zm-35.746,0h27.373v-.782l-6.531-4.9-1.6.011-2.155-.039-4.306-.08-1.928-.026-.792.011-2.15-.011c-.227,0-.452-.015-.675-.02Zm-6.441,0h3.676l7.337-5.918-.417,0-.174,0v-.035a67.868,67.868,0,0,1-10.423-1.423Zm-4.865,0h2.777v-7.88c-.216-.054-.425-.1-.645-.16l-1.042-.269c-.35-.1-.69-.2-1.032-.306l-2.073-.615-2.046-.687-1.023-.349-1.007-.382-2.018-.76c-.678-.255-1.338-.538-2-.807s-1.334-.544-2-.828l-.648-.287.755.79-.006,0Zm-14.875,0h12.472l-11.1-11.6,0,.012-1.379-1.449Zm-17.725-7.22h0l-1.843.773a87.41,87.41,0,0,1,8.437,6.446h9.044v-13.808l-1.009.428,0,0Zm-2.016,7.22h4.285c-1.013-.807-2.05-1.6-3.127-2.39-.379-.269-.776-.534-1.157-.8Zm-19.739,0h17.655V5037.2c-2.141-1.417-4.382-2.793-6.742-4.1a110.513,110.513,0,0,0-10.007-4.9c-.3-.127-.6-.241-.905-.368Zm-19.744,0h17.659v-14.859c-.247-.1-.495-.209-.747-.3v0a110.178,110.178,0,0,0-16.912-5.058Zm-19.737,0H617.2v-20.651a99.9,99.9,0,0,0-17.656-1.821Zm-2.086,0v-22.472a105.067,105.067,0,0,0-17.1,1.609.013.013,0,0,0-.007.009c-.185.036-.365.072-.546.106v13.385h11.981v1.256h-1.01v6.106Zm-14.636,0v-.593h-1.4v.593Zm-5.1,0v-.233h-.554v.233Zm-28.8,0v-.015h-1.556v.015Zm-31.149-11.9-11.6,11.9h12.326v-12.652Zm-2.009-1.055c-.658.282-1.328.548-2,.83s-1.325.556-2,.814l-2.018.76-1.009.381-1.027.35-2.044.7-2.075.62c-.343.1-.686.209-1.035.3l-1.046.272c-.226.062-.448.113-.674.167v7.764h2.908L516,5029.271l.845-.872Zm-21.445,12.956h4.441v-7.266q-2.768.611-5.579.972v5.441Zm-14.281,0v-.562h-1.132v.562Zm-2.219,0v-.658h-1.4v.658Zm-2.469,0v-.562h-1.392v.562Zm483.239-.415.143-.147H958.6Zm765.364-.147v-.1l-.137.1Zm-12.031,0h7.443q2.115-1.642,4.42-3.206l-.839-.338-14.143-5.7h0l-1.334-.537v2.981h5.121v1.255h-.667Zm-193.548,0h12.024v-5.544h-.664v-1.256h1.783v-9.288c-.254.049-.512.092-.767.149,0-.008,0-.008,0-.013a106.48,106.48,0,0,0-12.379,3.386Zm-274.485,0v-9.158q-.519.276-1.033.558-2.6,1.424-5.014,2.948c-.452.281-.89.568-1.328.853-.03.021-.057.038-.086.059v4.741Zm-12.031,0h2.489v-3.335c-.058.041-.116.079-.169.123q-1.186.828-2.32,1.68Zm-193.548,0h12.024v-5.544h-.665v-1.256h2.221v-15.109a103.833,103.833,0,0,0-13.581,1.048Zm-274.105,0v-12.41l-.556-.224h0l-1.4-.561v13.193Zm-12.03,0h7.994v-12.089l-.731.749-7.263,7.45Zm-181.525,0v-5.544H570v-1.256h7.729v-12.984c-.266.051-.537.1-.8.156,0-.009,0-.009,0-.013a111.629,111.629,0,0,0-15.74,4.513v.013c-.371.14-.743.29-1.115.432v14.686Zm1169.078-.332h.9V5039.6h-.9Zm-238.037,0h.905V5039.6h-.905Zm-242.027,0h.9V5039.6h-.9Zm-238.037,0h.905V5039.6h-.905Zm-479.684,0h.905V5039.6h-.905Zm1342.19-.042h.874l.549-.444v-1.16h-1.424Zm-480.064,0h1.424v-1.6h-1.424Zm-479.684,0h1.424v-1.6h-1.424Zm966.877-.009h6.478v-1.878l-3.084.053-2.054.033-1.34-.007Zm-480.064,0h6.478v-4.973l-.361.005-4.31.073-1.806.029Zm-473.375,0v-4.733l-1.138.008-2.155-.039-3.017-.056v2.074l2.629,2.746Zm-6.31,0h.228l-.228-.238Zm772.528-.084h1.392v-1.544h-1.392Zm-167.154,0h1.4v-1.544h-1.4Zm-312.91,0h1.392v-1.544h-1.392Zm-167.154,0h1.4v-1.544h-1.4Zm-312.53,0h1.392v-1.544H744.3Zm-167.154,0h.577v-1.544h-.577Zm1122.784-.067h1.385v-1.545h-1.385Zm-158.912,0h1.389v-1.545h-1.389Zm-321.152,0h1.385v-1.545h-1.385Zm-158.911,0h1.389v-1.545h-1.389Zm-320.772,0h.252v-1.545h-.252Zm-158.913,0h1.389v-1.545h-1.389Zm1117.576-.1v-1.258l-1.222,1.258Zm-155.359,0h1.392V5039.1h-1.392Zm-326.093,0h1.388V5039.1H1217.4Zm-153.971,0h1.392V5039.1h-1.392Zm-325.714,0H739.1V5039.1h-1.388Zm-153.971,0h1.393V5039.1h-1.393Zm951.242-.128h1.131v-1.254h-1.131Zm-308.826,0h.284q.423-.359.854-.714v-.54h-1.138Zm-171.238,0h1.131v-1.254h-1.131Zm-308.447,0h.238l.9-.924v-.33h-1.138Zm-171.238,0h1.131v-1.254h-1.131Zm1126.871-.067h1.132v-1.255h-1.132Zm-163,0h1.133v-1.255H1539.1Zm-317.062,0h1.132v-1.255h-1.132Zm-163,0h1.132v-1.255h-1.132Zm-315.551,0v-1.255h-.971v1.255Zm-163,0v-1.255h-.679v1.255Zm1323.534-.247h1.555v-1.314l-1.555.024Zm-480.064,0h1.556v-1.726h-1.556Zm303.875-.225h1.207v-1.334h-1.207Zm-480.064,0h1.207v-1.334h-1.207Zm-213.328,0v-1.334h-.2v1.334Zm-266.357,0h1.207v-1.334h-1.207Zm-214.532,0h1.2v-1.334h-1.2ZM1805,5039.763h1.391v-1.549H1805Zm-369.048,0h1.394v-.593l-1.394-.026Zm-111.016,0h1.391v-1.549h-1.391Zm-369.048,0h1.394v-1.549h-1.394Zm-110.637,0h1.392v-1.549h-1.392Zm-369.048,0h1.4v-1.549h-1.4Zm1332.687-.127h1.61v-1.784h-1.61Zm-377.041,0h1.609v-.536l-1.609-.025Zm-103.023,0h1.611v-1.784h-1.611Zm-377.041,0h1.423v-1.784h-1.423Zm-102.642,0h1.61v-1.784h-1.61Zm-377.042,0h1.609v-1.784H472.1Zm473.732,0v-1.158h-1.545Zm856.949-.071h1.131v-1.253h-1.131Zm-364.352,0h1.135v-.352l-1.12-.02h-.015Zm-115.712,0h1.132v-1.253h-1.132Zm-364.352,0H959.5v-1.253h-1.135Zm-115.333,0h1.132v-1.253h-1.132Zm-364.351,0h1.134v-1.253h-1.134Zm1332.767-.036h1.611v-1.786h-1.611Zm-382.166,0h1.608v-.467l-1.608-.025Zm-97.9,0H1333v-1.786h-1.612Zm-380.557,0v-1.3l-1.606,1.3Zm-99.127,0h1.612v-1.786H851.7Zm-382.165,0h1.608v-1.786h-1.608Zm258.8-3.437,3.731,2.8v-3.038Q730.2,5036.014,728.333,5036.089Zm1064.766,2.687h1.4v-1.542h-1.4Zm-480.064,0h.28v-1.542h-.28Zm-345.256,0h1.4v-1.542h-1.4Zm-134.429,0h1.4v-1.542h-1.4Zm1048.525-.155h1.241q-.621-.072-1.241-.154Zm-480.064,0h.205l1.336-1.077v-.63h-1.541Zm-479.684,0h1.541v-1.707h-1.541Zm868.755-.033h1.133v-1.258h-1.133Zm-339.427,0v-.03l-.22.03Zm-140.637,0h1.133v-1.258h-1.133Zm-340.555,0h1.129v-1.258h-1.129Zm-139.13,0h1.134v-1.258h-1.134Zm-340.554,0h1.128v-1.258h-1.128Zm1246.528-.268h1.2v-1.335h-1.2Zm-233.084,0h1.205v-1.335h-1.205Zm-246.98,0h1.2v-1.335h-1.2Zm-233.083,0h1.2v-1.335h-1.2Zm-479.684,0h1.2v-1.335h-1.2Zm-54.787-.111v-.975h-1.3Zm1249.9-.039h1.2v-1.33h-1.2Zm-237.633,0h1.2v-1.33h-1.2Zm-242.431,0h1.2v-1.33h-1.2Zm-237.633,0h1.2v-1.33h-1.2Zm-242.051,0h.28v-.231c-.057.041-.115.079-.169.123l-.11.077Zm-237.633,0h1.2v-1.33h-1.2Zm863.769-.331h1.542v-1.263l-1.542,1.244Zm-479.683,0h1.541v-1.25l-.44-.459h-1.1Zm321.529-.329h1.556v-1.733h-1.556Zm-213.025,0v-1.733h-.348v1.733Zm-266.659,0h1.557v-1.733h-1.557Zm-214.582,0h1.557v-1.733h-1.557Zm1177.074-.069h1.205v-1.111q-.608.341-1.205.69Zm-219.72,0h1.205V5036.1h-1.205Zm-260.344,0h1.206V5036.1h-1.206Zm-219.72,0h1.205V5036.1h-1.205Zm-259.963,0h1.2V5036.1h-1.2Zm-219.72,0h1.2V5036.1h-1.2Zm1181.387-.089h1.2v-1.33h-1.2Zm-223.559,0H1510v-1.33h-1.208Zm-256.505,0h1.2v-1.33h-1.2Zm-223.558,0h1.208v-1.33h-1.208Zm-256.125,0h1.2v-1.33h-1.2Zm-223.558,0h1.207v-1.33h-1.207Zm848.854-.468h1.418v-1.551l-.373-.053H1397.9Zm489.484-.035v-.718h-1.542v.613Q1886.609,5036.805,1887.381,5036.848Zm-48.149-.095,1.346-.572,0,.006,13.984-5.908,0,0,1.024-.429c-3.891-1.845-7.708-3.827-11.5-5.841-1.607-.86-3.221-1.7-4.843-2.522Zm-230.43,0,1.342-.572v0l13.984-5.9,0,0,1.025-.431c-3.885-1.843-7.715-3.825-11.508-5.839-1.6-.86-3.218-1.7-4.84-2.522Zm198.78-.115h1.393v-1.546h-1.393Zm-5.472,0v-1.546h-.524v1.546Zm-361.879,0h1.391v-1.546h-1.391Zm-6.865,0h1.392v-1.546h-1.392Zm-105.849,0h1.393v-1.546h-1.393Zm-6.864,0h1.392v-1.546h-1.392Zm-360.487,0h1.391v-.693l-1.391.023Zm-112.334,0h1.393v-1.546h-1.393Zm-5.472,0v-1.546H841.22v1.546Zm-361.879,0h1.391v-.479l-1.391-.025Zm-6.864,0h1.392v-.6l-1.392-.021Zm1338.361-.1h1.391v-1.547h-1.391Zm-6.865,0h1.392V5035h-1.392Zm-369.279,0h1.392V5035h-1.392Zm-6.867,0h1.394v-1.547h-1.394Zm-97.053,0h1.137v-1.547h-1.137Zm-6.865,0h1.392V5035h-1.392Zm-369.279,0h1.392v-.523l-.742.012-.65,0Zm-6.867,0h1.254l.14-.113v-.562q-.7-.043-1.394-.1Zm-96.673,0h1.391v-1.547h-1.391Zm-6.864,0h1.391V5035h-1.391Zm-369.28,0h1.392v-.464l-1.392-.026Zm-6.867,0h1.394v-.576l-1.394-.022Zm1432.493-.136h1.545v-1.71h-1.545Zm-480.063,0h1.544v-.576l-1.544.024Zm-479.684,0h1.545v-.452q-.772.055-1.545.1Zm867.791-.056h1.132v-1.258h-1.132Zm-6.863,0h1.135v-1.258h-1.135Zm-364.581,0h1.135v-1.258h-1.135Zm-6.861,0h1.132v-1.258h-1.132Zm-101.759,0h1.132v-1.258h-1.132Zm-6.863,0h1.135v-1.258h-1.135Zm-364.581,0h1.135v-.369l-.808.014-.327,0Zm-108.239,0h1.132v-1.258H850.01Zm-6.864,0h1.135v-1.258h-1.135Zm-364.58,0H479.7v-.231l-1.134-.021Zm-6.861,0h1.131V5036l-1.131-.017Zm1247.788-12.3c-3.784,2.027-7.6,4.015-11.491,5.862l15.959,6.433V5021.7Q1721.717,5022.852,1719.494,5024.049ZM1231.867,5036.3q.955-.682,1.941-1.349l-.88-.354-14.833-5.959h0l-1.4-.561v6.393h15.837v1.255h-.667Zm602.8-.843c.45.269.9.547,1.348.824l-7.873-10.81v6.4q2,1.009,3.961,2.1c.831.464,1.639.939,2.446,1.415A.78.78,0,0,1,1834.663,5035.459Zm-230.437,0c.457.273.905.551,1.351.828l-14.935-20.506v0l-.664-.918v13.491a108.462,108.462,0,0,1,11.692,5.618c.828.465,1.642.941,2.446,1.421l0-.007C1604.154,5035.4,1604.184,5035.43,1604.227,5035.455Zm300.066.667h1.3v-1.434h-1.3Zm-480.064,0h1.3v-.33l-1.3.021Zm-479.684,0h1.3v-.373q-.648.067-1.3.123Zm933.874-.45c.32.064.64.131.959.2v-.59h-1.417v.3Zm2.273.024h1.391v-1.55h-1.391Zm-480.064,0h1.391v-.047q-.7-.068-1.391-.15Zm-479.684,0h.494v-1.55h-.494Zm814.11-.055h1.557v-1.733h-.378q-.591.292-1.178.59Zm-229.327,0h1.563v-1.733H1505.8l-.076.038Zm-249.18,0v-1.733h-.374v1.733Zm-230.884,0h1.563v-1.733h-1.562Zm-250.356,0h1.555v-1.7l-.09-.036h-1.465Zm-229.328,0h1.563v-1.733h-1.563Zm1191.817-.074h1.212v-1.335h-1.212Zm-234.459,0h1.2v-1.027q-.6.308-1.2.625Zm-245.605,0h1.212v-1.335h-1.212Zm-234.459,0h1.2v-1.335h-1.2Zm-245.225,0h.427q.39-.271.784-.539v-.122l-.768-.308-.444-.178Zm-234.459,0h1.2v-1.335h-.78l-.424.252Zm1196.13-.08h1.2v-1.341h-1.2Zm-480.064,0h1.2v-1.341h-1.2Zm-238.294,0h1.2v-1.341h-1.2Zm-478.483,0v-.574q-.469.286-.93.574Zm1340.792-.009h1.472v-1.628h-1.472Zm-49.118-.09Zm51.2-.218h1.391v-1.54h-1.391Zm-48.509-.008v-14.679q-3.918-1.943-7.9-3.731-.6-.267-1.2-.529v6.441l8.5,11.676v0Zm-230.427,0v-14.679q-3.922-1.943-7.9-3.731-3.908-1.736-7.887-3.272l.812,1.114h0l14.382,19.748v0Zm98.679-.691v-1.924l-.7.716-1.174,1.208Zm-4.177,0,1.787-1.84.806-.834-1.025.457c-.628.271-1.262.525-1.9.795s-1.262.531-1.909.778l-1.7.644Zm-150.97,0v-11.321a99.725,99.725,0,0,0-16.3,1.54.011.011,0,0,0-.006.008c-.176.036-.348.069-.521.1v9.671Zm-797.744,0,5.068-5.2.847-.872-1.076.479c-.657.282-1.324.548-1.992.83s-1.325.556-2,.814l-2.019.76-1.012.381-1.024.35-2.042.7-2.076.62c-.346.1-.686.209-1.029.3l-1.049.272c-.223.062-.454.113-.677.167v.4Zm1121.594-.057h1.642v-1.859H1874.2Zm-959.747,0h1.642v-1.859h-1.642Zm951.769-.029-1.716-.648c-.642-.244-1.273-.514-1.908-.771s-1.273-.521-1.9-.792l-.628-.274.722.755,1.653,1.731Zm-6.062,0-.792-.83s0,.007,0,.01l-1.321-1.385v2.2Zm-469.414,0v-.818l-.163-.042c-.343-.1-.686-.2-1.032-.306l-2.069-.615-2.046-.687-1.021-.349-1.013-.382-2.018-.76c-.675-.255-1.335-.538-2-.807s-1.335-.544-1.988-.828l-.658-.287.756.79,4.874,5.09Zm-10.779,0-3.973-4.15s0,.011.006.015l-1.385-1.449v5.584Zm-468.9,0v-3.4l-8.062,3.4Zm988.073-.206h1.538v-1.712h-1.538Zm4.814-.068h1.545v-1.7h-1.545Zm-2.237-.213H1903v-1.437h-1.292Zm-494.631-.142v-.126h-1.391v.065Q1406.382,5033.732,1407.077,5033.757Zm-86.523-.006v-1.526h7.748V5025.2a109.5,109.5,0,0,0-12.907-3.592v12.142Zm-358.9-1.526v1.526h.922l.492-.01,3.059-.05,4.308-4.42.845-.872-1.075.479c-.657.282-1.328.548-2,.83s-1.325.556-2,.814l-2.018.76-1.01.381-1.027.35-.623.212Zm-24.759,1.5-.758-.2c-.343-.1-.685-.2-1.032-.306l-2.069-.615-1.518-.509v1.552C933.316,5033.689,935.109,5033.722,936.9,5033.721Zm482.167,0,1.538-.025v-1.223h-1.538Zm2.577-.042,1.292-.021v-1.19h-1.292Zm2.237-.037,1.545-.025v-1.2h-1.545Zm456.673-.006h1.424v-1.607h-1.424Zm-959.748,0h.632v-.157l.185,0,.607.01v-1.463h-1.424Zm434.071-.051,1.412-.6,0,.006,14.667-6.174,0,0,1.073-.449c-4.079-1.929-8.084-4-12.065-6.106-1.684-.9-3.378-1.773-5.079-2.637Zm-241.67,0,1.407-.6v0l14.666-6.171,0,0,1.075-.452c-4.074-1.926-8.092-4-12.069-6.1-1.678-.9-3.375-1.773-5.076-2.637Zm-212.768,0,1.412-.6,0,.006,9.21-3.877v-5.968q-2.782-1.422-5.539-2.887c-1.685-.9-3.378-1.773-5.08-2.637Zm-241.67,0,1.407-.6v0l14.667-6.171,0,0,1.075-.452c-4.073-1.926-8.091-4-12.069-6.1-1.678-.9-3.374-1.773-5.076-2.637Zm743.021-.208.124.014v-1.363h-1.424v1.2C1400.923,5033.28,1401.356,5033.333,1401.79,5033.372ZM1229.3,5020.3c-3.968,2.119-7.975,4.2-12.053,6.126l17.11,6.873v-15.638Q1231.813,5018.953,1229.3,5020.3Zm-241.673,0c-3.968,2.119-7.976,4.2-12.047,6.121l17.1,6.878v-15.637C990.991,5018.523,989.3,5019.4,987.626,5020.3Zm-41.885,12.875v-.769H944.2v.533C944.713,5033.02,945.227,5033.1,945.742,5033.176Zm404.343-.95c.472.281.944.572,1.415.862l-3.425-4.687v2.652c.638.363,1.266.731,1.893,1.1l-.007-.005A.879.879,0,0,1,1350.085,5032.227Zm-241.676,0c.48.285.949.576,1.417.866l-15.663-21.434v0l-.7-.96v14.1a113.849,113.849,0,0,1,12.263,5.873c.869.486,1.722.983,2.565,1.484l0-.008C1108.333,5032.169,1108.364,5032.2,1108.409,5032.223Zm-212.761,0c.473.281.943.572,1.414.862L881.4,5011.655v0l-.7-.963v14.1a113.892,113.892,0,0,1,12.26,5.873c.873.486,1.722.983,2.57,1.481l-.006-.005A.992.992,0,0,1,895.648,5032.227Zm-241.676,0c.48.285.949.576,1.417.866l-15.663-21.434v0l-.7-.96v14.1a113.844,113.844,0,0,1,12.263,5.873c.868.486,1.722.983,2.564,1.484l0-.008C653.9,5032.169,653.926,5032.2,653.972,5032.223Zm289.279.57v-.331H941.96v.073C942.391,5032.623,942.82,5032.713,943.251,5032.793Zm789.263-.156h.357l.549-.286V5031.3h-.906Zm-223.591,0h.905v-.6q-.454.2-.905.4Zm-256.473,0h.906V5031.3h-.906Zm-223.591,0h.905V5031.3h-.905Zm-256.093,0h.842l-.842-.338Zm-223.591,0h.905V5031.3h-.724l-.181.093Zm707.279-.035v-1.34h-.282v1.34Zm-230.7,0h1.2v-1.34h-1.2Zm-478.481,0v-.213l-.393.213Zm710.246-.146h1.2v-1.338h-1.2Zm-234.038,0h1.2v-1.338h-1.2Zm-245.646,0h1.2v-1.338h-1.2Zm962.873-.091v-.529q-.6.261-1.2.529Zm-239.086,0h1.207v-1.327h-1.207Zm-242.186,0h1.208v-1.327h-1.208Zm-237.878,0h1.207v-1.327h-1.207Zm-241.805,0h.161v-1.327h-.161Zm458.3-.129c.365-.221.735-.431,1.105-.648.14-.085.277-.17.423-.254-.009.006-.013.011-.013.02.65-.372,1.3-.754,1.965-1.119q1.173-.641,2.365-1.254v-4.488l-5.265,6.978v0Zm-241.668,0c.367-.221.742-.436,1.114-.657.14-.083.271-.167.407-.245a.134.134,0,0,0-.009.02c.448-.255.892-.515,1.341-.771v-2.136l-2.28,3.02Zm-454.438,0c.368-.221.743-.436,1.115-.657l.024-.014v-.526h-.241l-.324.429Zm1266.418-.012v-5.232q-3.374-.964-6.78-1.69v6.923Zm-959.747,0v-12.486q-3.72-.333-7.4-.376v12.862Zm654.931-.161q.6-.3,1.2-.6v-.343h-1.2Zm-726.779-.027v-.773h-1.2v.29Zm1097.632-.113h1.421v-1.607H1874.4Zm-480.064,0h1.421v-1.607h-1.421Zm-479.684,0h1.421v-1.607h-1.421Zm438.134,0v-15.343q-4.108-2.03-8.287-3.9-4.1-1.814-8.269-3.419l.852,1.165h-.007l3.006,4.113h8.239v1.508h-.248v9.424l4.088,5.592v0Zm-241.666,0v-15.343q-4.114-2.03-8.291-3.9-4.1-1.814-8.272-3.419l.852,1.165h0l15.084,20.639v0Zm-212.771,0v-15.343q-4.109-2.03-8.288-3.9-4.094-1.814-8.268-3.419l.851,1.165h-.007l15.085,20.637v0Zm-241.667,0v-15.343q-4.114-2.03-8.291-3.9-4.1-1.814-8.271-3.419l.852,1.165h0l15.083,20.639v0Zm346.382-19.223q-4.195,1.871-8.3,3.918V5031.5l4.472-5.923v-6.329h4.778l7.62-10.092Q1007.305,5010.8,1003.068,5012.7Zm241.67,0q-4.185,1.871-8.3,3.918v14.881l7.461-9.886v-2.365h1.785l7.617-10.092Q1248.983,5010.8,1244.737,5012.7Zm490.579,18.7.274-.134h-.274ZM543.8,5031.16l.07-.041h-.07Zm933.773-1.252,1.729.7v-1.53Q1478.44,5029.5,1477.574,5029.907Zm405.993.619h1.417v-1.606h-1.417Zm-480.064,0h1.417v-1.606H1403.5Zm-478.268,0v-.785l-.3-.121c-.375-.154-.749-.306-1.121-.46v.94l.408.426Zm946.866-.3h1.388v-1.546H1872.1Zm-480.064,0h1.388v-1.546h-1.388Zm-141.419,0h.9v-1.341h-.9Zm-219.927,0h.9v-1.341h-.9Zm-116.95,0v-.367l-.871.367Zm-361.831,0v-.182l-.381.182Zm1324.585-.093h1.393v-1.548H1876.5Zm-480.063,0h1.392v-1.548h-1.392Zm-479.684,0h1.343v-1.548h-1.326l-.018.007Zm-144.914-.079v-1.168h-.9v.807Zm1102.551-.239h1.464v-1.625h-1.464Zm-480.064,0h1.465v-1.625h-1.465Zm-479.683,0H916.1v-.95l-1.464.616Zm820.148-.068h1.4v-1.539h-1.4Zm-228.632,0h1.394v-1.539h-1.394Zm-480.064,0h1.394v-1.539h-1.394Zm-251.051,0h1.4v-1.539h-1.4Zm-228.633-.041q.694-.369,1.4-.73v-.768h-1.4Zm956.744-.049v-1.548h-.206l-1.165,1.548Zm-244.025,0h1.392v-1.548h-1.392Zm-237.43,0h1.391v-1.548H1021.7Zm-242.254,0h.477v-1.548h-.477Zm959.748-.062q.694-.306,1.392-.6v-.884h-1.392Zm-2.228-.133h1.144v-1.254h-1.144Zm-232.717,0h1.125v-1.254h-1.125Zm-247.347,0h1.144v-1.254H1256.9Zm-232.717,0h1.125v-1.254h-1.125Zm-246.968,0h1.144v-1.254h-1.144Zm-232.717,0h1.125v-1.254h-.638l-.487.645Zm-2.485-.193.875-1.159h-.875Zm1188.671-.336.034-.046h-.034Zm-2.691-.011h.9v-1.336h-.9Zm-693.708,0v-1.336h-.037v1.336Zm-265.138,0v-1.336h-.9v1.028l.769.309Zm-214.546,0v-.108l-.243.108Zm1032.687-14.8-14.832,8.75a107.624,107.624,0,0,1,15.537,4.7V5013.7Zm286.542,12.96h1.833V5025h-1.833Zm-480.064,0h1.833V5025h-1.833Zm-479.684,0h1.8l.029-.012v-1.5q-.578-.28-1.155-.563h-.678Zm821.075-.031h1.2v-1.335h-1.177l-.025.033Zm-229.171,0h1.2v-1.335h-1.2Zm-249.692,0v-.506l-.119.045v.461Zm-230.372,0h1.2v-1.335h-1.2Zm-250.513,0h1.2v-1.335h-1.2Zm-229.171,0h1.2v-1.335h-.573l-.632.836Zm216.573-.62,1.405.565v-1.237Q763.512,5026.094,762.808,5026.428Zm974.618.474h1.2v-1.333h-1.2Zm-232.514,0v-1.333h-.057l-1,1.333Zm-247.551,0h1.2v-1.217q-.6.214-1.2.434Zm-233.722,0h1.208v-1.333h-1.208Zm-245.961,0h1.2v-1.333h-1.2Zm961.666-.083h1.208v-1.335h-1.208Zm-237.556,0h.055l1-1.335h-1.06Zm-242.508,0h1.208v-1.335h-1.208Zm-237.557,0h1.2v-1.335h-1.2Zm-242.127,0h.32v-1.335h-.32Zm-237.556,0h1.2v-1.335h-1.2Zm1187.6-.025h.908v-1.33h-.908Zm-217.855,0h.906v-1.33h-.906Zm-480.064,0h.438v-1.33h-.438Zm-261.829,0h.908v-1.33H769.9Zm-217.855,0h.251l.656-.3v-1.032h-.906Zm-8.084-.1.849-1.124h-.849Zm1187.818-.04h.623l.581-.772v-.563h-1.2Zm-222.407,0h1.2v-1.335h-1.2Zm-480.064,0h1.2v-1.335h-1.2Zm-257.277,0h1.2v-1.335h-1.2Zm-222.406,0h1.2v-1.335h-1.2Zm1330.3-.011h1.541v-1.708h-1.541Zm-480.064,0h1.541v-1.708h-1.541Zm-150.275-.379q.453-.2.908-.4v-.4h-.908Zm268.8-7.019v6.667a109.251,109.251,0,0,1,11.513-3.118l-.736-.417-13.553-7.636-.916-.513v5.018Zm-596.67,6.375v-.685h-1.474Q920.975,5025.278,921.713,5025.618Zm330-.274.064-.027h-.064Zm551.174-2.475q2.75.609,5.481,1.368v-4.6Zm-296.571,1.331h1.4v-1.543h-.664l-.734.976Zm-480.064,0h1.4v-1.543h-.74l-.659.168Zm-251.368,0h1.4v-1.543h-1.4Zm952.561-.079h1.552v-1.736h-1.552Zm-212.539,0v-1.736h-.212v1.736Zm-267.525,0h1.553v-1.736h-1.553Zm-212.539,0v-1.736h-.593v1.736Zm-267.146,0h1.553v-.875q-.776.4-1.553.791Zm-214.1,0h1.561v-1.736H553.6Zm1185.433-.015h1.392v-1.545h-1.392Zm-959.748,0h.639v-1.545h-.639Zm722.64,0h1.394v-1.544h-1.394Zm-480.064,0h1.394v-.461q-.7.2-1.394.411Zm-479.684,0h1.394v-1.544h-1.394Zm1188.01-.056h1.205v-1.337h-1.205Zm-219.227,0h1.2v-1.337h-1.2Zm-260.837,0h1.205v-1.337h-1.205Zm-219.227,0h1.2v-1.337h-1.2Zm-260.456,0h1.2v-1.337h-1.2Zm-219.228,0h1.2v-1.337h-1.2Zm539.437-14.125-15.556,9.144a113.2,113.2,0,0,1,16.3,4.917v-14.494Zm-212.027,14.06v-14.494l-.744.434-9.234,5.429v.689h-.248v4.546Q873.557,5022.036,878.616,5023.983Zm-242.411-14.06-15.555,9.144a113.188,113.188,0,0,1,16.3,4.917v-14.494Zm1095.9,14.04h1.2v-1.331h-1.2Zm-223.077,0h1.208v-1.331h-1.208Zm-256.987,0h1.2v-1.331h-1.2Zm-223.077,0h1.208v-1.331h-1.208Zm-256.608,0h1.2v-1.331h-1.2Zm-223.076,0h1.207v-1.331h-1.207Zm1187.523-.054h1.133v-1.253h-.46l-.673.894Zm-712.469,0h1.132v-.88q-.567.15-1.132.307Zm-247.278,0h1.132v-1.253h-1.132Zm-232.406,0h1.132v-1.253h-1.132Zm1189.976-.225.774-1.028h-.774ZM560.07,5023.6a114.34,114.34,0,0,1,15.945-4.613l-.772-.436-14.214-7.981-.959-.536Zm944.331-.178.576-.766h-.576Zm-247.659-.031q.565-.207,1.133-.406v-.33h-1.133Zm-710.176-.156.438-.579h-.438Zm256.722-3.992v3.795a114.689,114.689,0,0,1,14.4-4.05L802.7,5010.57l-.96-.536v9.209Zm1073.7,3.594h1.837v-2.084h-1.837Zm-480.064,0h1.837v-2.084h-1.837Zm-479.683,0h1.836v-2.084h-1.836Zm341.722-.228.142-.048h-.142Zm612.317-.26h1.42v-1.614h-1.42Zm-480.063,0h1.419v-1.614h-1.419Zm-58.909-12.426-15.552,9.144a112.425,112.425,0,0,1,11.544,3.2v-6.23h-.4v-1.508h5.154v-5.044Zm549.812,12.338,1.539.007.009-1.711-1.54-.007Zm-480.064,0,1.54.007.008-1.711-1.54-.007Zm-479.684,0,1.54.007.008-1.711-1.54-.007Zm887.207-.37h1.2v-1.334h-1.2Zm-480.064,0h1.2v-1.334h-1.2Zm-479.683,0h1.2v-1.334h-1.2Zm932.933-1.4c.424.006.845.007,1.27.021v.008a96.479,96.479,0,0,1,13.871,1.36l-14.469-13.622-.673-.632Zm-230.43,0c.424.006.845.007,1.27.021l0,.008a96.453,96.453,0,0,1,13.868,1.36l-14.469-13.624v0l-.672-.632Zm259.16,1.32h1.207v-1.333H1811.5Zm-480.064,0h1.208v-1.333h-1.208Zm-479.684,0h1.208v-1.333h-1.208Zm667.337-10.942c-1.454.463-2.9.962-4.347,1.476l16.788,9.459V5007.7A108.09,108.09,0,0,0,1519.084,5010.87Zm246.535,10.921c.594-.1,1.191-.176,1.778-.259.049-.008.089-.017.134-.02h0a102.329,102.329,0,0,1,12.037-1v0c.406-.011.808-.011,1.216-.019v-12.975Zm-230.427,0c.6-.1,1.188-.176,1.784-.259a1.151,1.151,0,0,1,.125-.02,102.184,102.184,0,0,1,12.034-1v0c.406-.011.806-.011,1.209-.019v-12.975Zm266.393-.083,6.78-4v-1.668h-.4v-1.508h5.788l3.094-1.825.972-.571c-1.254-.444-2.52-.868-3.784-1.273a107.892,107.892,0,0,0-12.446-3.177Zm-230.431,0,16.229-9.57c-1.258-.444-2.515-.868-3.781-1.273a107.615,107.615,0,0,0-12.448-3.177Zm-658.2-.368v-.6H911.8Q912.373,5021.042,912.953,5021.34Zm871.528-14.386L1799.6,5021.2v-13.861c-.5-.083-1-.184-1.5-.261a97.491,97.491,0,0,0-14.677-1.109Zm-230.43,0,15.12,14.243v-13.859c-.5-.085-1-.186-1.5-.263a97.761,97.761,0,0,0-14.671-1.109Zm211.4.133c-.506.076-1,.177-1.505.264v13.743l1.042-.981,13.8-12.994h-.006l1.221-1.148A97.177,97.177,0,0,0,1765.447,5007.087Zm-230.43,0c-.505.076-1,.177-1.5.264v13.743l14.84-13.978-.006,0,1.222-1.148A97.18,97.18,0,0,0,1535.016,5007.087Zm226.94,12.156V5007.7a108.121,108.121,0,0,0-12.44,3.17c-1.459.463-2.9.962-4.345,1.476l12.239,6.9Zm-7.929,0-7.994-4.5-.916-.513v5.018Zm-10.889,0v-4.1l-.425.556-2.668,3.548Zm-5.168,0,4.409-5.862q-4.115,1.579-8.165,3.39-2.669,1.2-5.31,2.472Zm-225.265,0v-4.1l-.418.556-2.67,3.548Zm-5.159,0,4.411-5.862q-4.132,1.579-8.172,3.39-2.676,1.2-5.312,2.472Zm-236.6,0q.587-.131,1.174-.255l-14.99-8.417-.96-.536v9.209Zm-16.854,0v-8.253l-.445.581-5.79,7.673Zm-224.817,0q.587-.131,1.174-.255l-.771-.436-14.214-7.981-.959-.536v9.209Zm-16.856,0v-8.253l-.439.581-5.794,7.673Zm-212.764,0v-8.253l-.446.581-5.79,7.673Zm-8.413,0,7.616-10.092q-4.317,1.649-8.563,3.544-4.186,1.871-8.3,3.918v2.63Zm-11.328,0v-1.58q-1.537.781-3.066,1.58Zm-221.933,0v-8.253l-.44.581-5.794,7.673Zm-8.406,0,7.62-10.092q-4.333,1.649-8.569,3.544-4.2,1.871-8.3,3.918v2.63Zm-11.335,0v-1.579q-1.533.779-3.064,1.579Zm1341.49-.027h1.428v-1.608h-1.428Zm-480.064,0h1.428v-1.608h-1.428Zm-479.684,0h1.428v-1.608h-1.428Zm891.191-.123h1.393v-1.542h-.672l-.721.426Zm-480.064,0h1.393v-1.542h-1.393Zm478.974-.191v-.283l-.479.283Zm-481.191,0h1.128v-1.257H1328.9Zm545.312-.136h1.421v-1.605h-1.421Zm-480.064,0h1.421v-1.605h-1.421Zm-479.684,0h1.421v-1.605H914.46Zm957.067-.171h1.423v-1.6h-1.423Zm-480.064,0h1.423v-1.6h-1.423Zm-479.684,0H913.2v-1.6h-1.423Zm383.877-2.012c.445.006.887.008,1.332.022v.009a101.531,101.531,0,0,1,14.548,1.421l-15.174-14.238-.706-.66Zm-241.67,0c.445.006.887.008,1.332.022l0,.009a101.487,101.487,0,0,1,14.544,1.421l-15.174-14.24v0l-.705-.66Zm-454.438,0c.446.006.887.008,1.333.022l0,.009a101.5,101.5,0,0,1,14.545,1.421l-15.174-14.24v0l-.706-.66Zm661.237-10.055c-1.531.484-3.046,1.005-4.558,1.542l17.6,9.887v-14.743A113.467,113.467,0,0,0,1260.786,5006.527Zm-241.671,0c-1.525.484-3.048,1.005-4.56,1.542l17.608,9.887v-14.743A113.325,113.325,0,0,0,1019.115,5006.527Zm-212.767,0c-1.53.484-3.046,1.005-4.557,1.542l17.6,9.887v-14.743A113.472,113.472,0,0,0,806.348,5006.527Zm-241.671,0c-1.525.484-3.047,1.005-4.559,1.542l17.607,9.887v-14.743A113.436,113.436,0,0,0,564.677,5006.527Zm713,11.415c.623-.1,1.249-.185,1.865-.271.051-.007.093-.016.14-.019h0a107.619,107.619,0,0,1,12.625-1.044v-.006c.426-.012.847-.012,1.274-.02v-13.561Zm-241.667,0c.627-.1,1.246-.185,1.872-.271.042-.007.089-.016.131-.019a107.484,107.484,0,0,1,12.621-1.044v-.006c.427-.012.846-.012,1.269-.02v-13.561Zm-212.771,0c.624-.1,1.249-.185,1.866-.271.051-.007.092-.016.14-.019h0a107.624,107.624,0,0,1,12.625-1.044v-.006c.426-.012.848-.012,1.275-.02v-13.561Zm-241.666,0c.627-.1,1.246-.185,1.871-.271.042-.007.09-.016.131-.019a107.5,107.5,0,0,1,12.622-1.044v-.006c.426-.012.845-.012,1.269-.02v-13.561Zm733.824-.088,16-9.405,1.02-.6c-1.317-.465-2.644-.908-3.969-1.332a113.609,113.609,0,0,0-13.053-3.319Zm-241.671,0,17.02-10c-1.319-.465-2.637-.908-3.965-1.332a113.258,113.258,0,0,0-13.055-3.319Zm-454.438,0,17.021-10q-1.978-.7-3.966-1.332a113.264,113.264,0,0,0-13.055-3.319Zm678.169-15.42,15.861,14.888v-14.489c-.528-.087-1.048-.19-1.573-.272a102.443,102.443,0,0,0-15.393-1.159Zm-241.67,0,15.858,14.888v-14.486c-.525-.09-1.046-.193-1.57-.275a102.838,102.838,0,0,0-15.387-1.159Zm-454.437,0,15.857,14.888v-14.486c-.524-.09-1.045-.193-1.57-.275a102.828,102.828,0,0,0-15.386-1.159Zm676.145.14c-.532.078-1.052.185-1.58.275v14.365l1.094-1.024,14.474-13.583h-.006l1.28-1.2A102.282,102.282,0,0,0,1277.493,5002.573Zm-241.67,0c-.531.078-1.052.185-1.577.275v14.365l15.565-14.609h-.006l1.281-1.2A102.288,102.288,0,0,0,1035.824,5002.573Zm-212.768,0c-.531.078-1.052.185-1.579.275v14.365l1.093-1.024,14.474-13.583h-.006l1.28-1.2A102.294,102.294,0,0,0,823.055,5002.573Zm-241.67,0c-.531.078-1.052.185-1.576.275v14.365l15.564-14.609h-.006l1.281-1.2A102.3,102.3,0,0,0,581.386,5002.573Zm259.834,14.009c.444.006.886.008,1.332.022v.009q3.018.073,6.067.335v-.907h-.4v-1.508h5.154L841.925,5003.8l-.705-.66Zm1035.436-1h1.539v-1.709h-1.539Zm-480.064,0h1.539v-1.709h-1.539Zm-479.684,0h1.54v-1.709h-1.54Zm956.492-.127h1.416v-1.608H1873.4Zm-480.064,0h1.416v-1.608h-1.416Zm-479.683,0h1.416v-1.608h-1.416Zm957.479-.1h1.423v-1.605h-1.423Zm-480.064,0h1.424v-1.605h-1.424Zm-479.684,0h1.424v-1.605h-1.424Zm967.845-.048h1.3v-1.433h-1.3Zm-480.064,0h1.3v-1.433h-1.3Zm-479.684,0h1.3v-1.433h-1.3Zm965.024-.686h1.423v-1.611H1884.5Zm-480.064,0h1.423v-1.611h-1.423Zm-479.684,0h1.424v-1.611h-1.424Zm899.361-.087q-1.327-.539-2.662-1.053l.766,1.053Zm-5.694,0v-.829l-.709.415-.7.414Zm-480.484,0-2.1-2.878v0l-.7-.963v3.838Zm-471.332,0,10.352-6.085,1.02-.6c-1.316-.465-2.643-.908-3.969-1.332a113.607,113.607,0,0,0-13.053-3.319v11.332Zm-7.729,0v-11.7c-.528-.087-1.047-.19-1.573-.272a102.431,102.431,0,0,0-15.392-1.159l1.105,1.033,12.889,12.1Zm1017.451-2.654h1.417v-1.606h-1.417Zm-480.063,0h1.416v-1.606h-1.416Zm-479.684,0H918v-1.606h-1.416Zm957.065-.173h1.419V5010.1h-1.419Zm-480.064,0H1395V5010.1h-1.42Zm-479.684,0h1.421V5010.1H913.9Zm965.573-.1h1.424V5010h-1.424Zm-8.088,0h1.42V5010h-1.42Zm-471.976,0h1.424V5010h-1.424Zm-8.087,0h1.421V5010h-1.421Zm-471.6,0h1.424V5010h-1.424Zm-8.088,0h1.421V5010h-1.421Zm970.241-.138h1.541v-1.7h-1.541Zm-480.064,0h1.541v-1.7h-1.541Zm-479.684,0h1.541v-1.7h-1.541Zm962.325-.279h1.291v-1.429h-1.291Zm-480.064,0h1.291v-1.429h-1.291Zm-479.684,0H926v-1.429h-1.291Zm960.1-2.735h1.642v-1.859h-1.642Zm-8.087,0h1.643v-1.859h-1.643Zm-471.977,0h1.643v-1.859h-1.643Zm-8.087,0h1.643v-1.859h-1.643Zm-471.6,0H926.7v-1.859h-1.643Zm-8.086,0h1.642v-1.859h-1.642Zm962.652-.115h1.642v-1.857h-1.642Zm-8.087,0h1.64v-1.857h-1.64Zm-471.976,0h1.642v-1.857h-1.642Zm-8.087,0h1.639v-1.857h-1.639Zm-471.6,0h1.642v-1.857h-1.642Zm-8.086,0h1.639v-1.857h-1.639Zm970.758-.232h1.331v-1.512h-1.331Zm-8.088,0h1.335v-1.512h-1.335Zm-471.975,0h1.332v-1.512h-1.332Zm-8.089,0h1.335v-1.512H1394.4Zm-471.6,0h1.332v-1.512H922.8Zm-8.089,0h1.335v-1.512h-1.335Zm968.154-10.872h1.392v-1.549h-1.392Zm-480.064,0h1.392v-1.549H1402.8Zm-479.683,0h1.391v-1.549H923.12Zm964.142-.095h1.391v-1.546h-1.391Zm-480.063,0h1.39v-1.546h-1.39Zm-479.684,0h1.391v-1.546h-1.391Zm957.532-.2h1.13v-1.258h-1.13Zm-480.064,0h1.13v-1.258h-1.13Zm-479.684,0h1.131v-1.258H925.3Zm961.019-4.889h1.4v-1.546h-1.4Zm-480.064,0h1.4v-1.546h-1.4Zm-479.684,0h1.4v-1.546h-1.4Zm956.643-2.817h1.4v-1.541h-1.4Zm-480.064,0h1.4v-1.541h-1.4Zm-479.684,0h1.4v-1.541h-1.4Zm962.743-.162h1.131v-1.252h-1.131Zm-480.064,0h1.131v-1.252h-1.131Zm-479.684,0h1.132v-1.252H926.46Zm980.6,156.173h0Zm-480.064,0h0Zm432.374-111.68h0Zm1.423-.912Zm-483.3-3.358Z" transform="translate(-466.999 -4953)" fill="#002550"/>
</svg>
