<svg xmlns="http://www.w3.org/2000/svg" width="26.25" height="26.25" viewBox="0 0 26.25 26.25">
  <path id="_006_candy_sweet_chocolate_food" data-name="006_candy_sweet_chocolate_food" d="M25.046,12.423a2.481,2.481,0,0,1-.733,1.5L13,25.231a2.48,2.48,0,0,1-1.5.734L1.259,27.246a.458.458,0,0,1-.054,0A.436.436,0,0,1,.9,27.121l-.686-.686a.439.439,0,0,1-.125-.364L1.368,15.827a2.481,2.481,0,0,1,.733-1.5L13.41,3.019a2.481,2.481,0,0,1,1.5-.733L25.153,1a.433.433,0,0,1,.364.125l.686.686a.437.437,0,0,1,.125.364Zm0-10.525L15.018,3.154a1.7,1.7,0,0,0-.486.135.428.428,0,0,1-.1.147.436.436,0,0,1-.309.128l-.011,0c-.029.026-.059.047-.088.076L2.719,14.946c-.033.033-.058.068-.087.1a.428.428,0,0,1-.124.3.452.452,0,0,1-.131.087,1.689,1.689,0,0,0-.141.5L.98,25.968l.383.384L11.4,25.1a1.706,1.706,0,0,0,.452-.123.411.411,0,0,1,.468-.3c.023-.021.047-.037.07-.06L23.694,13.3c.025-.025.044-.052.067-.078a.428.428,0,0,1,.119-.349.44.44,0,0,1,.172-.1,1.707,1.707,0,0,0,.126-.46L25.433,2.282ZM23.293,12.73a.435.435,0,0,1-.311-.129.456.456,0,0,1-.013-.633.42.42,0,0,1,.6-.013l.029.03a.437.437,0,0,1-.31.745Zm-.917-.917a.437.437,0,0,1-.31-.129.456.456,0,0,1-.013-.633.419.419,0,0,1,.6-.013l.03.03a.437.437,0,0,1-.311.745ZM21.46,10.9a.434.434,0,0,1-.309-.128.455.455,0,0,1-.015-.633.42.42,0,0,1,.6-.015l.029.029a.437.437,0,0,1-.309.747Zm-.917-.917a.434.434,0,0,1-.309-.128.456.456,0,0,1-.015-.633.42.42,0,0,1,.6-.014l.029.029a.437.437,0,0,1-.309.747Zm-.917-.917a.436.436,0,0,1-.309-.128A.455.455,0,0,1,19.3,8.3a.42.42,0,0,1,.6-.014l.03.029a.437.437,0,0,1-.309.747Zm-.917-.917A.436.436,0,0,1,18.4,8.02a.455.455,0,0,1-.017-.633.419.419,0,0,1,.6-.017l.03.029a.438.438,0,0,1-.308.748Zm-.917-.917a.435.435,0,0,1-.308-.127.455.455,0,0,1-.017-.633.42.42,0,0,1,.6-.017l.03.029a.438.438,0,0,1-.308.748Zm-.917-.917a.435.435,0,0,1-.308-.127.456.456,0,0,1-.017-.633.421.421,0,0,1,.6-.017l.029.03a.437.437,0,0,1-.308.748ZM15.96,5.4a.437.437,0,0,1-.308-.127.456.456,0,0,1-.017-.633.421.421,0,0,1,.6-.017l.029.03a.437.437,0,0,1-.308.748Zm-.917-.917a.436.436,0,0,1-.309-.128.456.456,0,0,1-.015-.633.421.421,0,0,1,.6-.015l.029.03a.437.437,0,0,1-.309.747ZM15.009,9.2a.437.437,0,0,1,0,.619,1.966,1.966,0,0,0-.429,1.494,2.182,2.182,0,0,0,.142.55l1.653-1.653a.437.437,0,0,1,.619.619l-1.661,1.661a2.183,2.183,0,0,0,.573.149,1.988,1.988,0,0,0,1.494-.429.437.437,0,0,1,.619.619,2.823,2.823,0,0,1-1.874.7c-.026,0-.053,0-.08-.005a3.136,3.136,0,0,1,.539,1.254,2.64,2.64,0,0,1-.98,2.315,5.646,5.646,0,0,1-3.788,1.251A3.7,3.7,0,0,1,9.5,17.7c-1.023-1.023-.845-4.669.607-6.121A2.818,2.818,0,0,1,12.1,10.572a2.827,2.827,0,0,1,1.6.574,2.777,2.777,0,0,1,.7-1.947A.437.437,0,0,1,15.009,9.2ZM12.1,11.447a2.032,2.032,0,0,0-1.37.749c-1.22,1.22-1.195,4.3-.607,4.884a2.8,2.8,0,0,0,1.715.388,4.741,4.741,0,0,0,3.169-.995,1.835,1.835,0,0,0,.734-1.561,4.246,4.246,0,0,0-1.356-2.024.464.464,0,0,1-.038-.032.378.378,0,0,1-.033-.039C13.36,11.871,12.675,11.447,12.1,11.447ZM8.92,21.756a.451.451,0,0,1-.316.136.4.4,0,0,1-.288-.121l-.03-.029a.438.438,0,0,1,.619-.619A.456.456,0,0,1,8.92,21.756Zm-1.233-.781a.4.4,0,0,1-.288-.121l-.03-.03a.437.437,0,0,1,.619-.619A.455.455,0,0,1,8,20.839.449.449,0,0,1,7.687,20.975Zm-.917-.917a.4.4,0,0,1-.287-.121l-.03-.03a.437.437,0,1,1,.619-.619.456.456,0,0,1,.015.633A.448.448,0,0,1,6.77,20.058Zm-.917-.917a.4.4,0,0,1-.287-.121l-.03-.03a.437.437,0,0,1,.619-.619.456.456,0,0,1,.015.633A.448.448,0,0,1,5.853,19.142Zm-.917-.917a.4.4,0,0,1-.288-.121l-.029-.03a.437.437,0,0,1,.619-.619.456.456,0,0,1,.015.633A.451.451,0,0,1,4.937,18.225Zm-.917-.917a.4.4,0,0,1-.288-.121l-.03-.03a.437.437,0,1,1,.619-.619.456.456,0,0,1,.015.633A.449.449,0,0,1,4.02,17.309ZM3.1,16.392a.4.4,0,0,1-.288-.121l-.029-.03a.437.437,0,0,1,.619-.619.456.456,0,0,1,.015.633A.449.449,0,0,1,3.1,16.392Zm6.718,5.648a.456.456,0,0,1,.015.633.449.449,0,0,1-.316.136.4.4,0,0,1-.288-.121l-.03-.03a.438.438,0,0,1,.619-.619Zm.917.917a.455.455,0,0,1,.015.633.449.449,0,0,1-.316.136.4.4,0,0,1-.288-.121l-.03-.03a.437.437,0,0,1,.619-.619Zm.917.917a.455.455,0,0,1,.014.633.449.449,0,0,1-.316.136.4.4,0,0,1-.288-.121l-.03-.029a.438.438,0,0,1,.619-.619Z" transform="translate(-0.081 -0.999)" fill="#0a99ab"/>
</svg>
